<svg width="50" height="42" viewBox="0 0 50 42" fill="convertColors" xmlns="http://www.w3.org/2000/svg">
<g clip-path="url(#clip0_2052_1316)">
<path d="M46.71 0C48.02 0 49.03 0.48 49.66 1.64C49.8 1.9 49.89 2.2 50 2.48V3.52C49.15 5.55 48.49 5.99 46.26 5.99C40.3 5.99 9.19 5.99 3.42 5.98C2.83 5.98 2.21 5.86 1.66 5.65C0.71 5.29 0.3 4.44 0 3.53V2.49C0.85 0.44 1.51 0 3.74 0C9.42 0 40.63 0.03 46.71 0Z" fill="black"/>
<path d="M46.71 24C48.02 24 49.03 24.48 49.66 25.64C49.8 25.9 49.89 26.2 50 26.48V27.52C49.15 29.55 48.49 29.99 46.26 29.99C40.3 29.99 9.19 29.99 3.42 29.98C2.83 29.98 2.21 29.86 1.66 29.65C0.71 29.29 0.3 28.44 0 27.53V26.49C0.85 24.44 1.51 24 3.74 24C9.42 24 40.63 24.03 46.71 24Z" fill="black"/>
<path d="M46.71 12C48.02 12 49.03 12.48 49.66 13.64C49.8 13.9 49.89 14.2 50 14.48V15.52C49.15 17.55 48.49 17.99 46.26 17.99C40.3 17.99 9.19 17.99 3.42 17.98C2.83 17.98 2.21 17.86 1.66 17.65C0.71 17.29 0.3 16.44 0 15.53V14.49C0.85 12.44 1.51 12 3.74 12C9.42 12 40.63 12.03 46.71 12Z" fill="black"/>
<path d="M46.71 36C48.02 36 49.03 36.48 49.66 37.64C49.8 37.9 49.89 38.2 50 38.48V39.52C49.15 41.55 48.49 41.99 46.26 41.99C40.3 41.99 9.19 41.99 3.42 41.98C2.83 41.98 2.21 41.86 1.66 41.65C0.71 41.29 0.3 40.44 0 39.53V38.49C0.85 36.44 1.51 36 3.74 36C9.42 36 40.63 36.03 46.71 36Z" fill="black"/>
</g>
<defs>
<clipPath id="clip0_2052_1316">
<rect width="50" height="42" fill="white"/>
</clipPath>
</defs>
</svg>
