<svg width="46" height="24" viewBox="0 0 46 24" fill="convertColors" xmlns="http://www.w3.org/2000/svg">
<g clip-path="url(#clip0_2095_543)">
<path d="M2.27539 0C3.03976 0.120046 3.61051 0.552097 4.15723 1.07031C10.2793 6.8351 16.4112 12.5954 22.5381 18.3506C22.6784 18.485 22.8336 18.6101 23.0078 18.7637C23.8789 17.9477 24.7352 17.1502 25.5869 16.3486C31.0653 11.2031 36.5296 6.04826 42.0273 0.921875C42.487 0.499535 43.1546 0.302328 43.7256 0H43.9678C44.9841 0.216 45.6758 0.79245 46.0049 1.78125V2.73145C45.642 3.21615 45.3466 3.763 44.9111 4.1709C38.2811 10.4252 31.632 16.6607 24.9971 22.9102C24.4502 23.4237 23.8789 23.856 23.124 24H22.8818C22.1221 23.8704 21.5556 23.4237 21.0088 22.9102C14.49 16.7711 7.95633 10.6468 1.44238 4.49805C0.895513 3.97965 0.479116 3.32673 0 2.73633V1.78516C0.324287 0.791714 1.02187 0.215981 2.03809 0H2.27539Z" fill="black"/>
</g>
<defs>
<clipPath id="clip0_2095_543">
<rect width="46.0049" height="24" fill="white"/>
</clipPath>
</defs>
</svg>
