<svg width="43" height="50" viewBox="0 0 43 50" fill="convertColors" xmlns="http://www.w3.org/2000/svg">
<g clip-path="url(#clip0_2018_215)">
<path d="M0 46.5001V46.4201C0.18 46.3501 0.09 46.2101 0.08 46.0901C0 45.4101 0.19 44.7301 0.14 44.0501C0.14 43.9501 0.14 43.8501 0.15 43.7501C0.22 43.3001 0.31 42.8401 0.25 42.3801C0.25 42.2001 0.27 42.0201 0.28 41.8501C0.38 41.5501 0.4 41.2401 0.36 40.9301C0.36 40.8101 0.37 40.6801 0.38 40.5601C0.45 40.1101 0.54 39.6501 0.48 39.1901C0.48 39.0101 0.5 38.8301 0.51 38.6601C0.61 38.3601 0.63 38.0501 0.59 37.7401C0.59 37.6201 0.6 37.4901 0.61 37.3701C0.68 36.9201 0.78 36.4601 0.71 36.0001C0.71 35.8201 0.73 35.6401 0.74 35.4701C0.84 35.1701 0.86 34.8601 0.82 34.5501C0.82 34.4301 0.83 34.3001 0.84 34.1801C0.91 33.7301 1 33.2701 0.94 32.8101C0.94 32.6301 0.96 32.4501 0.97 32.2801C1.07 31.9801 1.09 31.6701 1.05 31.3601C1.05 31.2401 1.06 31.1101 1.07 30.9901C1.14 30.5401 1.23 30.0801 1.17 29.6201C1.17 29.4401 1.19 29.2601 1.2 29.0901C1.3 28.7901 1.32 28.4801 1.28 28.1701C1.28 28.0501 1.29 27.9201 1.3 27.8001C1.37 27.3501 1.46 26.8901 1.4 26.4301C1.4 26.2501 1.42 26.0701 1.43 25.9001C1.53 25.6001 1.55 25.2901 1.51 24.9801C1.51 24.8601 1.52 24.7301 1.53 24.6101C1.6 24.1601 1.69 23.7001 1.63 23.2401C1.63 23.0601 1.65 22.8801 1.66 22.7101C1.76 22.4101 1.78 22.1001 1.74 21.7901C1.74 21.6401 1.75 21.4901 1.76 21.3401C1.84 20.9101 1.92 20.4801 1.86 20.0501C1.86 19.8701 1.88 19.6901 1.89 19.5201C1.99 19.2201 2.01 18.9101 1.97 18.6001C1.97 18.4501 1.98 18.3001 1.99 18.1501C2.07 17.7201 2.15 17.2901 2.09 16.8601C2.09 16.6801 2.11 16.5001 2.12 16.3301C2.22 15.8701 2.32 15.4101 2.42 14.9501C2.43 14.9101 2.45 14.8601 2.46 14.8201C2.6 14.7201 2.63 14.5701 2.66 14.4201C2.68 14.4001 2.68 14.3801 2.68 14.3601C2.8 14.2901 2.87 14.1801 2.89 14.0401C2.92 13.9901 2.95 13.9501 2.99 13.9001C3.07 13.8701 3.12 13.8201 3.13 13.7301C3.28 13.5701 3.43 13.4201 3.59 13.2601C3.78 13.1801 3.94 13.0701 4.06 12.9001C4.13 12.8601 4.2 12.8201 4.27 12.7701C4.36 12.8001 4.41 12.7501 4.44 12.6701C4.46 12.6701 4.48 12.6701 4.5 12.6501C4.79 12.5701 5.07 12.4701 5.34 12.3301C5.39 12.3301 5.43 12.3101 5.48 12.3001C5.77 12.3401 6.05 12.2201 6.33 12.2001C7.39 12.2001 8.45 12.2001 9.52 12.2001C9.63 12.2201 9.65 12.1501 9.65 12.0701C9.65 11.4801 9.63 10.9001 9.62 10.3101C9.62 10.1801 9.64 10.0601 9.65 9.9301C9.74 9.7901 9.76 9.6301 9.73 9.4701C9.73 9.4201 9.74 9.3801 9.75 9.3301C9.8 9.1501 9.91 8.9801 9.86 8.7801C9.86 8.7301 9.87 8.6901 9.88 8.6401C9.96 8.5501 10 8.4501 9.97 8.3301C9.98 8.2601 9.99 8.2001 10.01 8.1301C10.1 8.0901 10.12 8.0201 10.08 7.9401C10.09 7.8901 10.1 7.8501 10.12 7.8001C10.27 7.5601 10.36 7.3001 10.42 7.0301C10.43 6.9901 10.45 6.9501 10.46 6.9001C10.63 6.7501 10.68 6.5501 10.73 6.3401C10.75 6.3001 10.77 6.2701 10.79 6.2301C10.86 6.1901 10.91 6.1301 10.89 6.0401C10.9 6.0201 10.91 6.0001 10.91 5.9801C11.11 5.7801 11.24 5.5401 11.34 5.2801C11.36 5.2701 11.37 5.2501 11.37 5.2301C11.46 5.2101 11.5 5.1501 11.49 5.0501C11.51 5.0401 11.52 5.0201 11.53 5.0001C11.64 4.9501 11.71 4.8701 11.72 4.7401C11.74 4.7301 11.75 4.7101 11.76 4.6901C11.87 4.6401 11.94 4.5601 11.96 4.4401C12.39 3.9201 12.86 3.4501 13.34 2.9901C13.49 2.9401 13.61 2.8601 13.67 2.7201C13.81 2.6101 13.96 2.5001 14.1 2.3901C14.19 2.3901 14.24 2.3501 14.27 2.2601L14.41 2.1701C14.63 2.1101 14.8 1.9701 14.96 1.8101C14.98 1.8101 15 1.8001 15.01 1.7801C15.19 1.7201 15.37 1.6601 15.48 1.5001C15.5 1.5001 15.52 1.5001 15.54 1.4801C15.85 1.3901 16.13 1.2401 16.4 1.0501C16.44 1.0401 16.49 1.0201 16.53 1.0101C17.02 0.840098 17.52 0.710098 17.98 0.480098C18.03 0.480098 18.07 0.460098 18.12 0.450098C18.41 0.430098 18.7 0.380098 18.97 0.250098C19.04 0.250098 19.11 0.230098 19.19 0.220098C19.44 0.270098 19.66 0.170098 19.89 0.120098C19.96 0.120098 20.04 0.110098 20.11 0.100098C20.85 0.100098 21.59 0.100098 22.33 0.100098C22.38 0.100098 22.43 0.100098 22.48 0.110098C22.71 0.170098 22.93 0.270098 23.18 0.210098C23.25 0.210098 23.32 0.230098 23.39 0.240098C23.66 0.370098 23.95 0.420098 24.24 0.450098C24.29 0.460098 24.33 0.470098 24.38 0.480098C25.23 0.800098 26.07 1.1501 26.9 1.5401C26.97 1.5801 27.03 1.6201 27.1 1.6601C27.13 1.7501 27.2 1.7701 27.28 1.7701C27.34 1.8101 27.41 1.8501 27.47 1.9001C27.71 2.1301 27.97 2.3201 28.27 2.4701C28.27 2.4901 28.29 2.5001 28.32 2.5101C28.4 2.6401 28.5 2.7401 28.65 2.7801C28.72 2.8401 28.79 2.9001 28.86 2.9601C28.9 3.0701 28.98 3.1501 29.1 3.1801C29.17 3.3201 29.26 3.4201 29.41 3.4801C29.44 3.5101 29.46 3.5301 29.49 3.5601C29.54 3.7101 29.65 3.8001 29.78 3.8701C29.89 3.9901 29.99 4.1101 30.1 4.2401C30.1 4.3301 30.15 4.3801 30.23 4.4101C30.34 4.5601 30.45 4.7001 30.56 4.8501C30.56 4.9401 30.61 4.9901 30.69 5.0201C30.72 5.0701 30.75 5.1101 30.78 5.1601C30.8 5.3001 30.86 5.4101 30.99 5.4801C30.99 5.5001 31 5.5201 31.02 5.5401C31.05 5.6701 31.09 5.7901 31.22 5.8601C31.22 5.8801 31.22 5.9001 31.24 5.9201C31.49 6.4501 31.75 6.9901 32 7.5201C32.01 7.5701 32.03 7.6101 32.04 7.6601C32.06 7.8601 32.1 8.0501 32.23 8.2001C32.24 8.2501 32.25 8.2901 32.26 8.3401C32.28 8.5901 32.32 8.8201 32.45 9.0401L32.49 9.2601C32.43 9.4601 32.53 9.6301 32.59 9.8101C32.59 9.8601 32.6 9.9101 32.61 9.9501C32.57 10.1101 32.59 10.2701 32.69 10.4101C32.7 10.5901 32.71 10.7701 32.72 10.9401C32.65 11.3301 32.72 11.7301 32.7 12.1201C32.7 12.1901 32.74 12.2301 32.82 12.2201H36C36.29 12.2601 36.56 12.3701 36.85 12.3301C36.9 12.3301 36.94 12.3501 36.99 12.3501C37.26 12.4901 37.54 12.5901 37.83 12.6701C37.85 12.6801 37.87 12.6901 37.89 12.6901C37.92 12.7701 37.97 12.8201 38.07 12.7901C38.11 12.8101 38.14 12.8301 38.18 12.8601C38.34 13.0301 38.53 13.1801 38.75 13.2801C38.86 13.3801 38.96 13.4901 39.07 13.5901C39.07 13.6801 39.12 13.7301 39.21 13.7501C39.21 13.8401 39.27 13.8901 39.35 13.9201C39.38 13.9701 39.41 14.0101 39.44 14.0601C39.47 14.2001 39.53 14.3101 39.65 14.3801C39.65 14.4001 39.65 14.4201 39.67 14.4401C39.71 14.5901 39.73 14.7401 39.87 14.8401C39.88 14.8801 39.9 14.9301 39.91 14.9701C39.89 15.0401 39.91 15.1001 39.98 15.1301C39.99 15.1801 40 15.2201 40.01 15.2701C40.09 15.6301 40.08 16.0001 40.21 16.3501C40.21 16.5301 40.23 16.7101 40.24 16.8801C40.17 17.3401 40.27 17.8001 40.34 18.2501C40.34 18.3701 40.35 18.5001 40.36 18.6201C40.32 18.9301 40.34 19.2401 40.44 19.5401C40.44 19.7201 40.46 19.9001 40.47 20.0701C40.4 20.5301 40.5 20.9901 40.57 21.4401C40.57 21.5601 40.58 21.6901 40.59 21.8101C40.55 22.1201 40.57 22.4301 40.67 22.7301C40.67 22.9101 40.69 23.0901 40.7 23.2601C40.63 23.7201 40.73 24.1801 40.8 24.6301C40.8 24.7501 40.81 24.8801 40.82 25.0001C40.78 25.3101 40.8 25.6201 40.9 25.9201C40.9 26.1001 40.92 26.2801 40.93 26.4501C40.86 26.9101 40.96 27.3701 41.03 27.8201C41.03 27.9201 41.03 28.0201 41.04 28.1201C41.01 28.4601 41.02 28.7901 41.13 29.1101C41.13 29.2901 41.15 29.4701 41.16 29.6401C41.09 30.1001 41.19 30.5601 41.26 31.0101C41.26 31.1101 41.26 31.2101 41.27 31.3101C41.24 31.6501 41.25 31.9801 41.36 32.3001C41.36 32.4801 41.38 32.6601 41.39 32.8301C41.32 33.2901 41.42 33.7501 41.49 34.2001C41.49 34.3201 41.5 34.4501 41.51 34.5701C41.47 34.8801 41.49 35.1901 41.59 35.4901C41.59 35.6701 41.61 35.8501 41.62 36.0201C41.55 36.4801 41.65 36.9401 41.72 37.3901C41.72 37.5101 41.73 37.6401 41.74 37.7601C41.7 38.0701 41.72 38.3801 41.82 38.6801C41.82 38.8601 41.84 39.0401 41.85 39.2101C41.78 39.6701 41.88 40.1301 41.95 40.5801C41.95 40.7001 41.96 40.8301 41.97 40.9501C41.93 41.2601 41.95 41.5701 42.05 41.8701C42.05 42.0501 42.07 42.2301 42.08 42.4001C42.01 42.8601 42.11 43.3201 42.18 43.7701C42.18 43.8701 42.18 43.9701 42.19 44.0701C42.16 44.8701 42.34 45.6601 42.22 46.4501C41.91 47.8901 41.1 48.9501 39.76 49.5501C39.4 49.7101 39.04 49.9201 38.62 49.8801C38.33 49.8801 38.04 49.9001 37.75 49.9001C26.72 49.9001 15.68 49.9001 4.65 49.9001C4.41 49.9001 4.17 49.8201 3.94 49.9001C3.89 49.8901 3.84 49.8701 3.79 49.8601C2.15 49.6101 1.04 48.6901 0.4 47.1801C0.3 46.9501 0.22 46.7101 0.08 46.4901L0 46.5001ZM21.08 12.2301C23.6 12.2301 26.12 12.2301 28.64 12.2301C28.94 12.2301 29.03 12.1601 29.03 11.8501C29.02 11.0901 28.95 10.3401 28.77 9.5901C27.69 5.2701 22.94 2.6601 18.72 4.0801C15.29 5.2401 13.18 8.2401 13.22 11.8801C13.22 12.1901 13.35 12.2201 13.6 12.2201C16.09 12.2201 18.59 12.2201 21.08 12.2201V12.2301Z" fill="#010101"/>
</g>
<defs>
<clipPath id="clip0_2018_215">
<rect width="42.25" height="50" fill="white"/>
</clipPath>
</defs>
</svg>
