<svg width="60" height="60" viewBox="0 0 60 60" fill="convertColors" xmlns="http://www.w3.org/2000/svg">
<path d="M0 1.70072C0.289926 0.927558 0.737913 0.300817 1.59866 0.0856543C1.82898 0.0285155 2.07284 0.00619573 2.31128 0.00530293C3.89098 -0.000946616 5.47157 -0.00183941 7.05217 0.00351735C10.5006 0.0142309 13.1307 2.26139 13.6789 5.63525C13.9363 7.21996 14.2362 8.79842 14.5036 10.3822C14.5478 10.6465 14.6697 10.7394 14.9244 10.7179C15.059 10.7063 15.1954 10.7161 15.3309 10.7161C27.9594 10.7161 40.587 10.7108 53.2155 10.7197C56.1048 10.7215 58.1714 12.075 59.4286 14.6194C60.0934 15.9658 60.1006 17.3951 59.8414 18.8531C59.341 21.6636 58.8804 24.4812 58.3972 27.2953C57.9094 30.138 57.4714 32.9913 56.906 35.8188C56.3614 38.5436 53.7222 40.6363 50.9151 40.7077C50.0877 40.7291 49.2595 40.7167 48.4322 40.7167C39.3261 40.7167 30.2201 40.7202 21.1141 40.714C18.3268 40.7122 15.9514 39.2185 14.9886 36.7321C14.5903 35.7045 14.434 34.5778 14.2326 33.485C13.6428 30.2826 13.0837 27.0748 12.5147 23.8679C12.0008 20.969 11.4914 18.0692 10.9766 15.1703C10.4419 12.1544 9.91079 9.13768 9.36255 6.12361C9.15481 4.98262 8.31936 4.30142 7.14881 4.29339C5.68924 4.28357 4.22697 4.24339 2.7692 4.3041C1.4126 4.36035 0.463341 3.89163 0.0018064 2.59172V1.69893L0 1.70072ZM15.3742 15.0051C15.3742 15.1292 15.3652 15.189 15.3751 15.2453C15.8647 18.0272 16.3542 20.8092 16.8473 23.5902C17.3251 26.2838 17.8084 28.9764 18.2889 31.6691C18.4559 32.6056 18.6104 33.5448 18.7955 34.4778C19.0584 35.7974 19.8351 36.4259 21.1845 36.4259C30.8758 36.4277 40.5671 36.4268 50.2593 36.4259C50.3795 36.4259 50.5005 36.4259 50.6206 36.4188C51.5609 36.3661 52.3683 35.75 52.5751 34.8421C52.7865 33.9154 52.9337 32.9744 53.0945 32.0369C53.5777 29.2237 54.0537 26.4096 54.5315 23.5956C54.8747 21.5725 55.254 19.5548 55.5458 17.5255C55.7625 16.0175 54.7952 15.0051 53.248 15.0051C40.7875 15.0033 28.327 15.0042 15.8665 15.0042C15.7066 15.0042 15.5476 15.0051 15.3742 15.0051Z" fill="black"/>
<path d="M24.0251 60C23.1869 59.7313 22.3072 59.5482 21.5169 59.1786C18.7486 57.8859 17.0379 54.7772 17.3658 51.772C17.7099 48.6124 19.9778 45.9939 23.0117 45.2511C27.0029 44.2735 30.8704 46.3849 32.1638 50.2471C33.5791 54.4763 30.7078 59.1599 26.2587 59.8813C26.1133 59.9045 25.9742 59.9598 25.8315 60H24.0251ZM24.9012 55.7092C26.6561 55.7324 28.1545 54.2968 28.1744 52.5746C28.1951 50.7971 26.7645 49.3159 25.0023 49.2927C23.2059 49.2686 21.7093 50.6819 21.6831 52.4264C21.656 54.2174 23.0957 55.6851 24.9012 55.7092Z" fill="black"/>
<path d="M45.7018 60C44.8637 59.7313 43.9839 59.5482 43.1936 59.1786C40.4253 57.8859 38.7147 54.7772 39.0425 51.772C39.3867 48.6124 41.6546 45.9939 44.6884 45.2511C48.6797 44.2735 52.5472 46.3849 53.8405 50.2471C55.2558 54.4763 52.3846 59.1599 47.9354 59.8813C47.7909 59.9045 47.6509 59.9598 47.5082 60H45.7018ZM46.6068 55.7092C48.3581 55.72 49.8439 54.2718 49.8511 52.5461C49.8592 50.7703 48.4186 49.307 46.6502 49.2936C44.86 49.2802 43.3752 50.7069 43.3598 52.4568C43.3445 54.2433 44.7968 55.6985 46.6068 55.7092Z" fill="black"/>
</svg>
