<svg width="25" height="50" viewBox="0 0 25 50" fill="convertColors" xmlns="http://www.w3.org/2000/svg">
<g clip-path="url(#clip0_2054_1865)">
<path d="M9.71 4.39C13.5 2.99 17.64 4.52 19.82 7.64H24.18C22.35 3.44 19.06 0.93 14.3 0.13C14.13 0.1 13.97 0.05 13.8 0H11.46C10.42 0.26 9.33 0.41 8.33 0.79C3.71 2.58 0.99 5.95 0.14 10.83C0.1 11.04 0.05 11.25 0 11.45V41.79C0.32 42.8 0.51 43.86 0.97 44.8C2.39 47.68 4.72 49.38 7.91 49.88C8.01 49.9 8.11 49.95 8.2 49.99H10.28C11.16 49.73 12.1 49.57 12.93 49.18C16.47 47.5 18.37 44.67 18.39 40.73C18.43 32.57 18.39 24.41 18.41 16.25C18.42 12.67 15.37 10.04 12 10.37C9.34 10.63 7.05 12.92 6.87 15.6C6.85 15.9 6.84 16.21 6.84 16.51C6.84 23.37 6.84 30.22 6.84 37.08C6.84 38.39 7.28 39.07 8.27 39.33C9.42 39.64 10.54 38.87 10.66 37.68C10.69 37.42 10.68 37.16 10.68 36.9C10.68 30.15 10.68 23.4 10.68 16.65C10.68 15.12 11.39 14.22 12.6 14.21C13.83 14.2 14.56 15.11 14.56 16.67C14.56 24.61 14.56 32.55 14.56 40.5C14.56 43.34 12.87 45.46 10.18 46.01C7.14 46.64 4.03 44.24 3.89 41.14C3.86 40.43 3.87 39.71 3.87 38.99C3.87 30.27 3.87 21.54 3.87 12.82C3.87 8.84 6.05 5.69 9.69 4.35L9.71 4.39Z" fill="black"/>
</g>
<defs>
<clipPath id="clip0_2054_1865">
<rect width="24.17" height="50" fill="white"/>
</clipPath>
</defs>
</svg>
