<svg width="46" height="44" viewBox="0 0 46 44" fill="convertColors" xmlns="http://www.w3.org/2000/svg">
<g clip-path="url(#clip0_221_452)">
<path d="M46 2.76122V1.80037C45.6758 0.800706 44.9789 0.213522 43.9625 0H43.7206C43.1543 0.305724 42.4865 0.504687 42.0316 0.936583C36.5338 6.11448 31.0651 11.3263 25.5916 16.5334C24.7398 17.3438 23.8832 18.1493 23.0121 18.9743C22.833 18.8142 22.683 18.688 22.5427 18.557C16.4109 12.7288 10.2792 6.91033 4.15718 1.08217C3.61031 0.558068 3.03924 0.121319 2.27459 0H2.03261C1.02115 0.218374 0.32425 0.800706 0 1.80037V2.76122C0.479116 3.35811 0.895318 4.02294 1.44219 4.54219C7.54971 10.3704 13.6718 16.1791 19.7841 21.9976C13.5556 27.9276 7.31257 33.8432 1.09374 39.7781C0.663019 40.1906 0.362967 40.7438 0 41.2339V42.1948C0.32425 43.1944 1.02115 43.7816 2.03745 43.9951H2.27943C2.84566 43.6894 3.51352 43.4905 3.96844 43.0586C9.46618 37.8807 14.9349 32.6688 20.4084 27.4618C21.2602 26.6514 22.1168 25.8458 22.9879 25.0208C23.167 25.181 23.317 25.3072 23.4573 25.4382C29.5842 31.2615 35.7159 37.08 41.838 42.9081C42.3848 43.4322 42.9559 43.869 43.7206 43.9903H43.9625C44.9789 43.7719 45.6709 43.1896 46 42.1899V41.2291C45.5209 40.6322 45.1047 39.9674 44.5578 39.4481C38.4503 33.6199 32.3282 27.8112 26.2159 21.9927C32.4444 16.0626 38.6874 10.1471 44.9063 4.2122C45.337 3.79971 45.637 3.2465 46 2.75637V2.76122Z" fill="black"/>
</g>
<defs>
<clipPath id="clip0_221_452">
<rect width="46" height="44" fill="white"/>
</clipPath>
</defs>
</svg>
