<svg width="68" height="60" viewBox="0 0 68 60" fill="convertColors" xmlns="http://www.w3.org/2000/svg">
<path d="M58.3953 0C59.7087 0.198662 61.0132 0.429431 62.2132 1.04849C65.81 2.90669 67.7618 5.8515 67.9819 9.93311C68.0127 10.5 67.9948 11.0699 67.9948 11.6378C67.9948 21.3191 67.9958 30.9993 67.9918 40.6806C67.9918 40.9967 67.9829 41.3197 67.9172 41.6268C67.7678 42.3211 67.1474 42.8067 66.4444 42.8258C65.7453 42.8438 65.0931 42.3883 64.9138 41.703C64.8312 41.3849 64.8112 41.0428 64.8112 40.7117C64.8063 30.6462 64.8023 20.5806 64.8102 10.515C64.8122 7.61839 63.4988 5.50635 61.078 4.04849C59.9059 3.34214 58.6044 3.14147 57.2521 3.14147C43.2631 3.14749 29.274 3.14348 15.285 3.14749C13.3939 3.14749 11.4979 3.10234 9.61188 3.2087C6.31478 3.39431 3.37616 6.47458 3.21285 9.80167C3.2019 10.0184 3.19194 10.2361 3.19194 10.4528C3.19094 23.4783 3.19194 36.5027 3.18995 49.5281C3.18995 52.3164 4.41777 54.3973 6.76588 55.8181C7.97976 56.5525 9.32907 56.7712 10.7312 56.7712C23.9734 56.7662 37.2155 56.7682 50.4587 56.7682C52.7989 56.7682 55.138 56.7803 57.4781 56.7642C60.7105 56.7421 63.3305 54.9281 64.3611 51.9602C64.5872 51.308 64.6818 50.5967 64.7455 49.9033C64.8441 48.8408 65.4695 48.1605 66.4294 48.1866C67.3784 48.2117 67.9998 48.9421 67.9869 50.0157C67.9351 54.3411 64.9218 58.3224 60.7762 59.5023C59.9985 59.7241 59.1899 59.8375 58.3963 60H9.60093C9.45554 59.9729 9.31015 59.9388 9.16377 59.9207C7.62824 59.7401 6.17636 59.2906 4.86987 58.4508C1.6355 56.3739 0.00437452 53.393 0.00238291 49.5261C-0.0016003 36.5077 0.000391307 23.4903 0.00138711 10.4729C0.00138711 10.3054 -0.000604498 10.1388 0.00835773 9.97124C0.241376 5.72207 2.28277 2.67391 6.11462 0.9301C7.19507 0.438462 8.43385 0.3 9.60093 0H58.3953Z" fill="black"/>
<path d="M49.0905 29.4411C47.5311 29.4411 45.9697 29.5054 44.4142 29.4271C41.3481 29.2736 38.9831 26.8916 38.8945 23.7893C38.8098 20.8003 38.8098 17.8043 38.8945 14.8154C38.9831 11.6639 41.4198 9.22776 44.5516 9.14749C47.5848 9.06923 50.624 9.06923 53.6573 9.14849C56.8747 9.23278 59.3264 11.8084 59.3672 15.0542C59.402 17.8786 59.4 20.704 59.3672 23.5284C59.3303 26.7452 56.9583 29.2575 53.7658 29.4281C52.2113 29.5114 50.6499 29.4411 49.0905 29.4411ZM49.0935 12.3532C47.6834 12.3532 46.2724 12.3421 44.8623 12.3562C43.2073 12.3732 42.092 13.507 42.087 15.1796C42.0781 17.9217 42.079 20.6639 42.087 23.406C42.092 25.0977 43.2153 26.2365 44.9021 26.2445C47.7063 26.2575 50.5115 26.2575 53.3157 26.2445C55.0036 26.2365 56.1019 25.1017 56.1049 23.392C56.1099 20.6669 56.1089 17.9408 56.1049 15.2157C56.1019 13.4759 55.0056 12.3662 53.2759 12.3552C51.8817 12.3462 50.4866 12.3522 49.0935 12.3532Z" fill="black"/>
<path d="M28.6706 35.8796C25.4641 35.8776 22.8431 33.2418 22.8371 30.014C22.8312 26.7803 25.4561 24.1144 28.6407 24.1204C31.9029 24.1264 34.5289 26.7682 34.5279 30.0452C34.5279 33.2589 31.894 35.8806 28.6706 35.8796ZM31.2965 29.985C31.2885 28.5431 30.0816 27.3271 28.6566 27.3231C27.1998 27.3191 25.9918 28.5411 25.9968 30.012C26.0028 31.4799 27.2306 32.699 28.6805 32.6779C30.0975 32.6569 31.3045 31.4147 31.2965 29.985Z" fill="black"/>
<path d="M14.7154 20.9037C11.5298 20.9528 8.88495 18.3472 8.82122 15.0963C8.75848 11.8896 11.3804 9.15753 14.5521 9.12441C17.7984 9.0913 20.491 11.7642 20.5189 15.0472C20.5448 18.2117 17.9268 20.8545 14.7154 20.9037ZM14.6267 17.6719C16.0717 17.6719 17.2626 16.4829 17.2676 15.0351C17.2726 13.5451 16.0966 12.3582 14.6188 12.3612C13.153 12.3642 11.9988 13.5181 11.9849 14.996C11.9709 16.486 13.141 17.6719 14.6267 17.6719Z" fill="black"/>
<path d="M14.6546 39.0983C17.9069 39.1405 20.5498 41.8314 20.5179 45.0682C20.4861 48.2729 17.8004 50.9117 14.6128 50.8706C11.3755 50.8284 8.76445 48.1415 8.82122 44.9097C8.87798 41.6779 11.5079 39.0572 14.6546 39.0983ZM14.6188 42.3271C13.1569 42.3271 11.9978 43.485 11.9849 44.9599C11.9719 46.4508 13.142 47.6378 14.6258 47.6398C16.0677 47.6418 17.2616 46.4478 17.2666 45.001C17.2716 43.512 16.0985 42.3281 14.6188 42.3271Z" fill="black"/>
<path d="M34.5279 15.0251C34.5597 18.2247 31.9318 20.8786 28.7064 20.9037C25.5159 20.9288 22.863 18.289 22.8381 15.0652C22.8132 11.8375 25.4232 9.1485 28.6048 9.12442C31.8422 9.10034 34.495 11.7441 34.5279 15.0251ZM28.6437 17.6719C30.0856 17.6749 31.2875 16.4829 31.2975 15.0401C31.3084 13.5652 30.1175 12.3622 28.6447 12.3612C27.1838 12.3612 26.0177 13.5191 25.9978 14.991C25.9779 16.4669 27.1639 17.6689 28.6437 17.6719Z" fill="black"/>
<path d="M14.6407 35.8796C11.4352 35.8756 8.82221 33.2388 8.82122 30.006C8.82022 26.7682 11.4432 24.1084 14.6267 24.1194C17.8711 24.1314 20.5189 26.7983 20.5189 30.0562C20.5189 33.2478 17.8591 35.8836 14.6407 35.8796ZM17.2666 30.003C17.2666 28.5441 16.0906 27.3381 14.6536 27.3231C13.1958 27.308 11.9899 28.514 11.9849 29.994C11.9799 31.4699 13.1848 32.687 14.6417 32.6779C16.0657 32.6689 17.2666 31.4448 17.2666 30.003Z" fill="black"/>
<path d="M34.5279 44.9699C34.5737 48.1425 31.9607 50.8244 28.7781 50.8716C25.5547 50.9197 22.881 48.302 22.8381 45.0542C22.7953 41.8284 25.3983 39.1294 28.5829 39.0973C31.8322 39.0642 34.4811 41.6799 34.5279 44.9699ZM28.6656 42.3271C27.1818 42.3191 25.9958 43.501 25.9978 44.9839C25.9998 46.4468 27.1649 47.6258 28.6218 47.6398C30.0607 47.6528 31.2766 46.4649 31.2975 45.0261C31.3184 43.5492 30.1354 42.3351 28.6656 42.3271Z" fill="black"/>
<path d="M49.0766 44.4502C46.9376 44.4502 44.7976 44.4562 42.6586 44.4462C41.8889 44.4431 41.3163 43.9957 41.1002 43.2813C40.904 42.6311 41.135 41.8635 41.7395 41.5385C42.099 41.3448 42.555 41.2555 42.9683 41.2525C46.4506 41.2304 49.9339 41.2395 53.4163 41.2405C54.1791 41.2405 54.9428 41.2214 55.7046 41.2625C56.5122 41.3057 57.1147 41.9237 57.1744 42.6983C57.2372 43.502 56.7273 44.2194 55.9386 44.404C55.7325 44.4522 55.5104 44.4482 55.2963 44.4482C53.2231 44.4512 51.1498 44.4512 49.0766 44.4502Z" fill="black"/>
<path d="M49.0437 50.8746C48.3476 50.8746 47.6506 50.8987 46.9565 50.8686C46.1379 50.8324 45.5584 50.3308 45.3911 49.5752C45.2447 48.914 45.5863 48.1615 46.2206 47.8595C46.4815 47.7351 46.7902 47.6639 47.079 47.6599C48.4044 47.6388 49.7298 47.6398 51.0552 47.6538C52.0839 47.6649 52.7939 48.3301 52.8019 49.2512C52.8098 50.1883 52.0849 50.8605 51.0313 50.8776C50.3691 50.8886 49.7059 50.8796 49.0427 50.8796C49.0427 50.8786 49.0437 50.8756 49.0437 50.8746Z" fill="black"/>
<path d="M49.1383 34.815C49.8334 34.815 50.5294 34.804 51.2245 34.8171C52.1526 34.8341 52.8208 35.4823 52.8427 36.3632C52.8646 37.2913 52.2412 37.9886 51.2862 38.0087C49.8632 38.0388 48.4382 38.0378 47.0152 38.0087C46.0623 37.9896 45.414 37.2813 45.4389 36.3742C45.4638 35.4913 46.132 34.8351 47.0531 34.8161C47.7482 34.802 48.4422 34.815 49.1383 34.815Z" fill="black"/>
</svg>
