<svg width="60" height="60" viewBox="0 0 60 60" fill="convertColors" xmlns="http://www.w3.org/2000/svg">
<path d="M60 28.2031V31.875C59.9672 32.0258 59.925 32.1758 59.9031 32.3281C59.7071 33.6523 59.5751 34.9898 59.3088 36.2992C58.4356 40.6 56.6548 44.5148 53.9938 47.993C48.7945 54.7891 41.9261 58.7273 33.4261 59.793C32.8856 59.8609 32.3452 59.9305 31.8047 59.9992H28.1338C27.9698 59.9672 27.8066 59.918 27.641 59.9062C25.8594 59.7766 24.1068 59.4734 22.3815 59.0172C20.1618 58.4312 18.0358 57.6031 16.0028 56.532C15.8161 56.4336 15.5467 56.3766 15.3499 56.4297C11.6595 57.4141 7.97378 58.4156 4.28886 59.4211C3.64138 59.5977 3.00172 59.8063 2.35892 60H1.42168C1.37014 59.9641 1.32249 59.918 1.26626 59.893C0.214206 59.4227 -0.180216 58.5797 0.118139 57.4828C1.2647 53.268 2.40032 49.05 3.55781 44.8375C3.6531 44.4891 3.60545 44.2234 3.44456 43.9187C1.41465 40.0758 0.292309 35.9719 0.0478456 31.643C-0.177092 27.6617 0.392281 23.7758 1.73097 20.0148C3.65466 14.6102 6.85221 10.1047 11.3463 6.53438C15.8029 2.99297 20.8624 0.885938 26.5179 0.215625C27.0576 0.151562 27.5949 0.071875 28.1338 0C29.3569 0 30.5808 0 31.8047 0C32.0343 0.0367187 32.2624 0.0789063 32.4928 0.109375C33.4722 0.239062 34.4602 0.322656 35.431 0.500781C40.0368 1.34531 44.2481 3.13828 47.9674 5.98281C54.7632 11.1797 58.7129 18.043 59.7907 26.5438C59.861 27.0969 59.9305 27.65 60 28.2031ZM4.5755 55.4164C4.73405 55.3891 4.80981 55.382 4.88244 55.3625C8.30728 54.4344 11.7337 53.5109 15.1554 52.5719C15.8232 52.3883 16.4222 52.4594 17.0267 52.8031C20.0696 54.5344 23.3281 55.6148 26.8068 56.0437C30.8557 56.543 34.8046 56.1195 38.6497 54.7758C47.562 51.6625 54.0915 44.0078 55.8113 34.7125C56.4182 31.4328 56.3979 28.157 55.7465 24.8953C54.7952 20.1289 52.7098 15.8984 49.392 12.3484C43.6045 6.15547 36.4456 3.29688 27.9667 3.84922C24.5215 4.07344 21.2631 5.0125 18.1913 6.57891C13.5871 8.92734 9.96619 12.3352 7.34895 16.7938C5.31436 20.2602 4.15999 24.0047 3.85148 28.0172C3.63357 30.8469 3.87804 33.6305 4.55988 36.3812C5.13941 38.7188 6.02822 40.932 7.22945 43.018C7.53952 43.5563 7.64574 44.1117 7.48563 44.7047C6.77723 47.3281 6.05946 49.9484 5.34638 52.5703C5.09489 53.4953 4.84496 54.4219 4.5755 55.4164Z" fill="black"/>
<path d="M41.4825 20.4703C41.4715 20.9781 41.2161 21.4492 40.7999 21.8641C37.9709 24.6844 35.1506 27.5133 32.3264 30.3375C28.8305 33.8336 25.3346 37.3305 21.8363 40.8242C21.1881 41.4719 20.4071 41.6437 19.6659 41.3219C18.4467 40.793 18.1491 39.2398 19.0988 38.2664C20.1438 37.1961 21.2107 36.1461 22.269 35.0883C27.5676 29.7883 32.8685 24.4891 38.1646 19.1867C38.7379 18.6133 39.3885 18.3727 40.1836 18.6219C40.9514 18.8625 41.4762 19.5766 41.4825 20.4703Z" fill="black"/>
<path d="M37.5148 43.8289C34.0431 43.8289 31.1955 40.993 31.19 37.5289C31.1845 34.0461 34.0361 31.1859 37.5148 31.1852C41.0006 31.1852 43.8342 34.0305 43.8318 37.5289C43.8295 40.9992 40.992 43.8289 37.5148 43.8289ZM37.5062 40.0742C38.9113 40.0789 40.0735 38.9289 40.079 37.5273C40.0852 36.1203 38.9386 34.9508 37.5422 34.9383C36.1285 34.9258 34.9437 36.0984 34.9437 37.5102C34.9437 38.9078 36.1043 40.0695 37.5062 40.0742Z" fill="black"/>
<path d="M22.5221 16.1703C25.9993 16.1875 28.8258 19.0234 28.8227 22.493C28.8196 25.9758 25.9547 28.8305 22.4776 28.8156C18.9887 28.8008 16.1692 25.9484 16.184 22.4477C16.1988 18.9773 19.0504 16.1531 22.5221 16.1703ZM22.5143 19.9242C21.1014 19.9219 19.9447 21.0617 19.9369 22.4656C19.9283 23.8898 21.0905 25.0633 22.5065 25.0602C23.9014 25.057 25.0667 23.8922 25.0722 22.493C25.0776 21.0977 23.9108 19.9266 22.5143 19.9242Z" fill="black"/>
</svg>
