<svg width="88" height="60" viewBox="0 0 88 60" fill="convertColors" xmlns="http://www.w3.org/2000/svg">
<path d="M43.4834 53.332C45.3568 53.332 46.7706 54.4275 47.0791 56.0967C47.3775 57.717 46.4394 59.1981 44.6953 59.8633C44.6098 59.8952 44.534 59.9542 44.4541 60H2.66602C1.35075 59.5445 0.431054 58.6944 0.00195312 57.3613V55.9727C0.452069 54.7702 1.14717 53.7924 2.4834 53.4619C2.86341 53.3675 3.26753 53.3359 3.66016 53.3359C16.935 53.3304 30.2085 53.3306 43.4834 53.332ZM83.9785 26.667C85.5995 26.667 86.7122 27.4362 87.3193 28.9346C87.3712 29.0623 87.4397 29.1831 87.5 29.3066V30.6953C87.0429 31.8937 86.3458 32.869 85.0137 33.2051C84.6577 33.2953 84.2778 33.331 83.9092 33.3311C57.1376 33.3366 30.3653 33.3357 3.59375 33.3398C1.7179 33.3397 0.617532 32.3506 0.00195312 30.6943V29.3066C0.452076 28.1042 1.14758 27.1309 2.48242 26.7949C2.81748 26.7103 3.17229 26.6713 3.51855 26.6699C30.339 26.6644 57.1595 26.6642 83.9785 26.667ZM61.5469 0.00292969C63.5675 0.00292969 65.0672 1.4606 65.0518 3.36719C65.0363 5.24736 63.5491 6.66895 61.5537 6.66895C42.2099 6.67311 22.8672 6.67188 3.52344 6.67188C1.67702 6.67175 0.607156 5.65426 0 4.03125V2.64258L0.000976562 2.64062C0.451047 1.43825 1.14684 0.466439 2.48145 0.128906C2.81658 0.0455885 3.1722 0.00488281 3.51855 0.00488281C22.8609 -0.000671589 42.2046 -0.00123611 61.5469 0.00292969Z" fill="black"/>
</svg>
