<svg width="50" height="50" viewBox="0 0 50 50" fill="convertColors" xmlns="http://www.w3.org/2000/svg">
<g clip-path="url(#clip0_2046_233)">
<path d="M23.96 0C24.35 0 24.74 0 25.13 0C26.98 0.59 27.6 1.91 27.58 3.78C27.53 9.57 27.56 15.37 27.56 21.16V22.05C27.93 22.05 28.2 22.05 28.48 22.05C34.55 22.03 40.63 22.03 46.7 22C48.01 22 49.02 22.48 49.65 23.64C49.79 23.9 49.88 24.2 49.99 24.48V25.52C49.14 27.55 48.48 27.99 46.25 27.99C40.29 27.99 34.33 27.99 28.37 27.99H27.58V28.88C27.58 34.67 27.58 40.45 27.58 46.24C27.58 48.46 27.12 49.16 25.12 50H23.95C22.13 49.36 21.55 48.04 21.57 46.17C21.64 40.38 21.59 34.59 21.59 28.79C21.59 28.54 21.59 28.29 21.59 27.99C21.23 27.99 20.97 27.99 20.72 27.99C14.95 27.99 9.17999 27.99 3.40999 27.98C2.81999 27.98 2.19999 27.86 1.64999 27.65C0.69999 27.29 0.28999 26.44 -0.0100098 25.53V24.49C0.83999 22.46 1.49999 22.02 3.72999 22.02C9.40999 22.02 15.09 22.02 20.77 22.02H21.61C21.61 21.71 21.61 21.48 21.61 21.25C21.6 15.85 21.59 10.45 21.58 5.06C21.58 4.3 21.56 3.54 21.6 2.78C21.65 1.61 22.3 0.81 23.31 0.29C23.52 0.18 23.74 0.11 23.95 0.02L23.96 0Z" fill="black"/>
</g>
<defs>
<clipPath id="clip0_2046_233">
<rect width="50" height="50" fill="white"/>
</clipPath>
</defs>
</svg>
