<svg width="43" height="50" viewBox="0 0 43 50" fill="convertColors" xmlns="http://www.w3.org/2000/svg">
<g clip-path="url(#clip0_2118_2332)">
<path d="M42.2999 44.13C42.2999 44.03 42.2999 43.93 42.29 43.83C42.22 43.37 42.1199 42.92 42.1899 42.45C42.1899 42.27 42.1699 42.09 42.16 41.91C42.06 41.61 42.04 41.3 42.08 40.99C42.08 40.87 42.07 40.74 42.06 40.62C41.99 40.16 41.8899 39.71 41.9599 39.25C41.9599 39.07 41.9399 38.89 41.93 38.71C41.83 38.41 41.8099 38.1 41.8499 37.79C41.8499 37.67 41.84 37.54 41.83 37.42C41.76 36.96 41.66 36.51 41.7299 36.05C41.7299 35.87 41.7099 35.69 41.7 35.51C41.6 35.21 41.5799 34.9 41.6199 34.59C41.6199 34.47 41.6099 34.34 41.5999 34.22C41.5299 33.76 41.43 33.31 41.5 32.85C41.5 32.67 41.4799 32.49 41.47 32.31C41.36 31.99 41.35 31.65 41.38 31.31C41.38 31.21 41.3799 31.11 41.3699 31.01C41.2999 30.55 41.2 30.1 41.27 29.64C41.27 29.46 41.25 29.28 41.24 29.1C41.13 28.77 41.12 28.44 41.15 28.1C41.15 28 41.1499 27.9 41.1399 27.8C41.07 27.34 40.97 26.89 41.04 26.43C41.04 26.25 41.0199 26.07 41.0099 25.89C40.91 25.59 40.8899 25.28 40.93 24.97C40.93 24.85 40.9199 24.72 40.91 24.6C40.84 24.14 40.74 23.69 40.81 23.23C40.81 23.05 40.7899 22.87 40.7799 22.69C40.68 22.39 40.66 22.08 40.7 21.77C40.7 21.65 40.6899 21.52 40.68 21.4C40.61 20.94 40.51 20.49 40.58 20.03C40.58 19.85 40.5599 19.67 40.5499 19.49C40.45 19.19 40.43 18.88 40.47 18.57C40.47 18.45 40.4599 18.32 40.45 18.2C40.38 17.74 40.2799 17.29 40.3499 16.83C40.3499 16.65 40.3299 16.47 40.32 16.29C40.1899 15.94 40.2 15.57 40.1199 15.21C40.11 15.16 40.0999 15.12 40.09 15.07C40.0299 15.03 40 14.98 40.02 14.91C40.01 14.87 39.9899 14.82 39.9799 14.78C39.84 14.68 39.82 14.53 39.7799 14.38C39.7599 14.36 39.7599 14.34 39.7599 14.32C39.6399 14.25 39.57 14.14 39.5499 14L39.4599 13.86C39.3799 13.83 39.3299 13.78 39.32 13.69C39.2399 13.67 39.18 13.62 39.18 13.53C39.07 13.43 38.97 13.32 38.86 13.22C38.6399 13.12 38.45 12.98 38.29 12.8C38.25 12.78 38.22 12.76 38.18 12.73C38.09 12.76 38.04 12.71 38 12.63C37.9799 12.63 37.9599 12.63 37.9399 12.61C37.6499 12.53 37.3599 12.43 37.0999 12.29C37.0499 12.29 37.0099 12.27 36.9599 12.27C36.6699 12.31 36.3899 12.19 36.0999 12.17C35.0299 12.17 33.97 12.17 32.9 12.16C32.82 12.17 32.7799 12.13 32.7799 12.06C32.7899 11.67 32.7199 11.27 32.7999 10.88L32.77 10.34C32.67 10.2 32.66 10.04 32.6899 9.87999C32.6899 9.82999 32.6799 9.77999 32.6699 9.73999C32.6099 9.55999 32.5099 9.38999 32.57 9.18999C32.56 9.11999 32.5399 9.04999 32.5299 8.96999C32.3999 8.74999 32.3499 8.51999 32.34 8.26999L32.31 8.12999C32.18 7.96999 32.1299 7.77999 32.1199 7.57999C32.11 7.52999 32.09 7.48999 32.08 7.43999C31.82 6.89999 31.57 6.36999 31.3099 5.82999C31.2999 5.80999 31.29 5.78999 31.29 5.76999C31.16 5.69999 31.11 5.57999 31.09 5.44999C31.07 5.42999 31.0599 5.41999 31.0599 5.38999C30.93 5.31999 30.87 5.20999 30.85 5.06999C30.82 5.01999 30.79 4.97999 30.76 4.92999C30.68 4.89999 30.6299 4.84999 30.6299 4.75999C30.5199 4.60999 30.41 4.46999 30.2999 4.31999C30.2099 4.29999 30.16 4.23999 30.16 4.14999L29.84 3.77999C29.7 3.70999 29.59 3.61999 29.54 3.45999C29.51 3.42999 29.49 3.40999 29.4599 3.37999C29.3099 3.32999 29.2199 3.21999 29.15 3.07999C29.0299 3.03999 28.95 2.96999 28.91 2.85999C28.84 2.79999 28.77 2.73999 28.7 2.67999C28.55 2.63999 28.44 2.54999 28.36 2.40999C28.34 2.40999 28.32 2.38999 28.3099 2.36999C28.01 2.21999 27.75 2.02999 27.51 1.79999C27.45 1.75999 27.3799 1.71999 27.32 1.66999C27.24 1.66999 27.17 1.64999 27.1299 1.55999C27.0599 1.51999 27 1.47999 26.93 1.43999C26.1 1.04999 25.26 0.68999 24.4 0.36999C24.35 0.35999 24.3099 0.34999 24.26 0.33999C23.96 0.31999 23.68 0.26999 23.41 0.12999C23.34 0.12999 23.27 0.10999 23.2 0.0999902C22.95 0.14999 22.7299 0.0499902 22.5 -9.76585e-06C22.45 -9.76585e-06 22.4 -9.76585e-06 22.35 -0.0100098C21.61 -0.0100098 20.86 -0.0100098 20.12 -0.0100098C20.05 -0.0100098 19.9699 -9.76585e-06 19.9 0.00999023C19.67 0.0599902 19.44 0.15999 19.2 0.10999C19.13 0.10999 19.0599 0.12999 18.9799 0.13999C18.7099 0.27999 18.42 0.31999 18.1299 0.34999C18.08 0.34999 18.0399 0.36999 17.99 0.37999C17.52 0.60999 17.02 0.73999 16.53 0.90999C16.49 0.91999 16.44 0.93999 16.4 0.94999C16.1399 1.13999 15.85 1.28999 15.54 1.37999C15.52 1.38999 15.5 1.39999 15.48 1.39999C15.36 1.55999 15.18 1.61999 15 1.67999C14.99 1.69999 14.97 1.70999 14.95 1.70999C14.79 1.86999 14.62 2.00999 14.4 2.06999C14.35 2.09999 14.31 2.12999 14.26 2.15999C14.23 2.23999 14.18 2.28999 14.09 2.28999C13.95 2.39999 13.8 2.50999 13.66 2.61999C13.59 2.76999 13.47 2.84999 13.33 2.88999C12.85 3.34999 12.37 3.82999 11.94 4.33999C11.93 4.45999 11.85 4.53999 11.74 4.58999C11.74 4.60999 11.72 4.62999 11.7 4.63999C11.7 4.76999 11.62 4.83999 11.51 4.89999C11.51 4.91999 11.49 4.93999 11.47 4.94999C11.47 5.03999 11.44 5.09999 11.35 5.12999C11.35 5.14999 11.34 5.16999 11.32 5.18999C11.21 5.44999 11.09 5.68999 10.89 5.88999C10.89 5.90999 10.89 5.92999 10.87 5.94999C10.89 6.03999 10.84 6.09999 10.77 6.13999C10.75 6.17999 10.73 6.20999 10.71 6.24999C10.66 6.45999 10.61 6.65999 10.44 6.80999C10.43 6.84999 10.41 6.88999 10.4 6.93999C10.34 7.20999 10.25 7.46999 10.1 7.70999C10.09 7.75999 10.08 7.79999 10.06 7.84999C10.1 7.93999 10.08 7.99999 9.98995 8.03999C9.97995 8.10999 9.96995 8.16999 9.94995 8.23999C9.97995 8.35999 9.94995 8.45999 9.85995 8.54999C9.85995 8.59999 9.84995 8.63999 9.83995 8.68999C9.89995 8.88999 9.78995 9.05999 9.72995 9.23999C9.72995 9.28999 9.71995 9.32999 9.70995 9.37999C9.74995 9.54999 9.70995 9.69999 9.62995 9.84999C9.62995 9.97999 9.60995 10.11 9.59995 10.23C9.60995 10.82 9.61995 11.41 9.62995 12C9.62995 12.08 9.60995 12.15 9.49995 12.13C8.42995 12.13 7.36995 12.13 6.29995 12.13C6.00995 12.15 5.73995 12.27 5.43995 12.23C5.38995 12.23 5.34995 12.25 5.29995 12.26C5.02995 12.4 4.74995 12.5 4.45995 12.58C4.43995 12.59 4.41995 12.6 4.39995 12.6C4.36995 12.68 4.31995 12.73 4.21995 12.7C4.14995 12.74 4.07995 12.78 4.00995 12.83C3.88995 13 3.71995 13.11 3.53995 13.19C3.38995 13.35 3.22995 13.5 3.07995 13.66C3.07995 13.75 3.02995 13.8 2.93995 13.83C2.90995 13.88 2.87995 13.92 2.83995 13.97C2.81995 14.11 2.74995 14.22 2.62995 14.29C2.62995 14.31 2.62995 14.33 2.60995 14.35C2.56995 14.5 2.53995 14.65 2.40995 14.75C2.39995 14.79 2.37995 14.84 2.36995 14.88C2.26995 15.34 2.16995 15.8 2.06995 16.26C2.06995 16.44 2.04995 16.62 2.03995 16.8C2.09995 17.24 2.01995 17.67 1.93995 18.1C1.93995 18.25 1.92995 18.4 1.91995 18.55C1.95995 18.86 1.93995 19.17 1.83995 19.47C1.83995 19.65 1.81995 19.83 1.80995 20.01C1.86995 20.45 1.79995 20.88 1.70995 21.31L1.68995 21.76C1.72995 22.07 1.70995 22.38 1.60995 22.68C1.60995 22.86 1.58995 23.04 1.57995 23.22C1.64995 23.69 1.54995 24.14 1.47995 24.6C1.47995 24.72 1.46995 24.85 1.45995 24.97C1.49995 25.28 1.47995 25.59 1.37995 25.89C1.37995 26.07 1.35995 26.25 1.34995 26.43C1.40995 26.9 1.31995 27.35 1.24995 27.81C1.24995 27.93 1.23995 28.06 1.22995 28.18C1.26995 28.49 1.24995 28.8 1.14995 29.1C1.14995 29.28 1.12995 29.46 1.11995 29.64C1.17995 30.11 1.08995 30.56 1.01995 31.02C1.01995 31.14 1.00995 31.27 0.999951 31.39C1.03995 31.7 1.01995 32.01 0.919951 32.31C0.919951 32.49 0.899951 32.67 0.889951 32.85C0.959951 33.32 0.859951 33.77 0.789951 34.23C0.789951 34.35 0.779951 34.48 0.769951 34.6C0.809951 34.91 0.789951 35.22 0.689951 35.52C0.689951 35.7 0.669951 35.88 0.659951 36.06C0.729951 36.53 0.629951 36.98 0.559951 37.44C0.559951 37.56 0.549951 37.69 0.539951 37.81C0.579951 38.12 0.559951 38.43 0.459951 38.73C0.459951 38.91 0.439951 39.09 0.429951 39.27C0.499951 39.74 0.399951 40.19 0.329951 40.65C0.329951 40.77 0.319951 40.9 0.309951 41.02C0.349951 41.33 0.329951 41.64 0.229951 41.94C0.229951 42.12 0.209951 42.3 0.199951 42.48C0.269951 42.95 0.169951 43.4 0.0999512 43.86C0.0999512 43.96 0.0999512 44.06 0.0899512 44.16C0.139951 44.84 -0.0500488 45.52 0.0299512 46.21C0.0399512 46.32 0.129951 46.46 -0.0500488 46.54V46.62C0.0899512 46.84 0.169951 47.08 0.269951 47.31C0.909951 48.83 2.02995 49.75 3.67995 50C3.72995 50 3.77995 50.02 3.82995 50.04C4.06995 49.96 4.30995 50.04 4.53995 50.04C15.62 50.04 26.7 50.04 37.79 50.04C38.08 50.04 38.3699 50.03 38.66 50.02C39.0799 50.05 39.45 49.85 39.81 49.69C41.16 49.08 41.97 48.02 42.29 46.58C42.41 45.78 42.2299 44.98 42.2599 44.19L42.2999 44.13ZM18.7999 3.98999C23.0299 2.55999 27.7999 5.17999 28.8899 9.51999C29.08 10.27 29.1399 11.02 29.15 11.79C29.15 12.1 29.0599 12.17 28.76 12.17C26.2299 12.16 23.7 12.17 21.17 12.17C18.6399 12.17 16.16 12.17 13.65 12.17C13.39 12.17 13.27 12.15 13.27 11.83C13.23 8.16999 15.34 5.15999 18.79 3.98999H18.7999ZM21.2 47.15C12.51 47.15 5.42995 40.08 5.42995 31.39C5.42995 22.69 12.49 15.63 21.2 15.64C29.8899 15.64 36.9599 22.73 36.95 31.42C36.95 40.06 29.8499 47.14 21.2099 47.15H21.2Z" fill="#010101"/>
<path d="M23.3799 31.0801C23.1599 30.8101 22.9699 30.4201 22.9599 30.0801C22.9099 28.9901 22.9599 27.9001 22.9399 26.8101C22.9199 25.7501 22.1599 24.9601 21.1899 24.9701C20.2099 24.9701 19.4799 25.7501 19.4599 26.8301C19.4499 27.5801 19.4599 28.3301 19.4599 29.0901C19.4599 29.8201 19.3899 30.5501 19.4799 31.2701C19.5499 31.7701 19.7399 32.3101 20.0599 32.6901C20.7299 33.4801 21.4999 34.1901 22.2499 34.9201C23.0099 35.6401 24.0399 35.6601 24.7299 34.9901C25.4399 34.3001 25.4399 33.2401 24.7099 32.4601C24.2799 32.0001 23.7899 31.5901 23.3899 31.1101L23.3799 31.0801Z" fill="#010101"/>
</g>
<defs>
<clipPath id="clip0_2118_2332">
<rect width="42.37" height="50" fill="white"/>
</clipPath>
</defs>
</svg>
