<svg width="31" height="24" viewBox="0 0 31 24" fill="convertColors" xmlns="http://www.w3.org/2000/svg">
<g clip-path="url(#clip0_2023_774)">
<path d="M14.6447 24H8.64471C8.08311 23.7552 7.86231 23.3328 7.86711 22.7136C7.88631 19.9008 7.86711 17.088 7.88151 14.2752C7.88151 13.8864 7.79031 13.5744 7.55991 13.2528C5.47191 10.3536 3.39351 7.4544 1.33911 4.536C1.14711 4.2672 1.04151 3.888 1.02231 3.552C0.974307 2.7984 1.03191 2.04 0.998307 1.2864C0.974307 0.6624 1.21911 0.2448 1.78551 0H21.5039C22.0655 0.2448 22.3103 0.6672 22.2863 1.2864C22.2575 2.0112 22.2623 2.7408 22.2863 3.4704C22.3007 3.9072 22.1663 4.2672 21.9119 4.6176C19.8287 7.5168 17.7551 10.416 15.6959 13.3296C15.5279 13.5648 15.4319 13.896 15.4271 14.184C15.4079 17.0256 15.4031 19.8672 15.4271 22.7088C15.4271 23.328 15.2111 23.7504 14.6495 23.9952L14.6447 24Z" fill="black"/>
<path d="M24.6527 19.8815C23.0687 19.8815 21.4799 19.8863 19.8959 19.8815C19.3391 19.8815 18.9263 19.5119 18.8495 18.9983C18.7775 18.5231 19.0655 18.0527 19.5407 17.8895C19.6847 17.8415 19.8479 17.8271 20.0015 17.8271C23.1167 17.8271 26.2271 17.8271 29.3423 17.8271C30.0383 17.8271 30.5087 18.2543 30.5039 18.8687C30.4991 19.4783 30.0335 19.8863 29.3231 19.8863C27.7679 19.8863 26.2079 19.8863 24.6527 19.8863V19.8815Z" fill="black"/>
<path d="M25.3871 12.3457C26.7023 12.3457 28.0127 12.3457 29.3279 12.3457C30.0335 12.3457 30.5039 12.7585 30.5039 13.3681C30.5039 13.9825 30.0383 14.4049 29.3375 14.4049C26.6831 14.4049 24.0239 14.4049 21.3695 14.4049C20.6735 14.4049 20.2127 13.9777 20.2175 13.3585C20.2271 12.7585 20.6735 12.3505 21.3551 12.3505C22.6991 12.3505 24.0383 12.3505 25.3823 12.3505L25.3871 12.3457Z" fill="black"/>
<path d="M26.6879 8.91353C25.8335 8.91353 24.9743 8.91353 24.1199 8.91353C23.4287 8.91353 22.9535 8.47673 22.9631 7.87193C22.9727 7.27673 23.4287 6.85913 24.1055 6.85913C25.8623 6.85913 27.6191 6.85913 29.3711 6.85913C30.0431 6.85913 30.5039 7.28633 30.5087 7.87673C30.5135 8.48633 30.0431 8.90873 29.3471 8.91353C28.4639 8.91353 27.5759 8.91353 26.6927 8.91353H26.6879Z" fill="black"/>
<path d="M27.4415 1.36786C28.0991 1.36786 28.7567 1.36306 29.4143 1.36786C30.0479 1.37746 30.5039 1.80946 30.5087 2.39026C30.5135 2.97106 30.0623 3.42226 29.4335 3.42706C28.0895 3.43666 26.7503 3.43666 25.4063 3.42706C24.7727 3.42706 24.3311 2.98066 24.3359 2.39026C24.3407 1.79986 24.7871 1.37746 25.4255 1.37266C26.0975 1.36306 26.7695 1.37266 27.4367 1.37266L27.4415 1.36786Z" fill="black"/>
</g>
<defs>
<clipPath id="clip0_2023_774">
<rect width="31" height="24" fill="white"/>
</clipPath>
</defs>
</svg>
