<svg width="25" height="24" viewBox="0 0 25 24" fill="convertColors" xmlns="http://www.w3.org/2000/svg">
<g clip-path="url(#clip0_2023_773)">
<path d="M10.2824 0C10.7528 0 11.228 0 11.6984 0C11.7656 0.0144 11.8328 0.0384 11.9 0.0432C12.6776 0.1056 13.436 0.2736 14.1752 0.5184C18.0296 1.7952 20.7896 5.4192 20.9768 9.48C21.092 11.952 20.3864 14.1792 18.8648 16.1376C18.7496 16.2864 18.764 16.3632 18.8888 16.4928C20.7416 18.3408 22.5896 20.1936 24.4424 22.0416C24.6632 22.2624 24.8792 22.488 24.98 22.7904V23.208C24.8504 23.6064 24.5864 23.8656 24.188 24H23.7704C23.5496 23.8512 23.3 23.7264 23.1128 23.544C21.236 21.6816 19.364 19.8096 17.5016 17.9376C17.348 17.784 17.2616 17.7696 17.084 17.9088C14.7704 19.6704 12.1688 20.328 9.30318 19.8624C7.26798 19.5312 5.50158 18.6192 4.02318 17.1792C2.51118 15.7104 1.55118 13.9392 1.15758 11.8608C1.08558 11.4816 1.03758 11.0928 0.97998 10.7136C0.97998 10.2432 0.97998 9.768 0.97998 9.2976C0.99438 9.2112 1.01358 9.12 1.02798 9.0336C1.10478 8.568 1.15278 8.0976 1.26798 7.6416C1.82478 5.3808 3.03438 3.5328 4.86318 2.1024C6.13998 1.104 7.57038 0.4608 9.15438 0.1776C9.52878 0.1056 9.90798 0.0576 10.2824 0ZM10.9928 2.0016C6.59118 2.0016 2.99598 5.5872 2.99118 9.984C2.98638 14.3952 6.57678 17.9952 10.988 17.9952C15.3896 17.9952 18.98 14.4096 18.9896 10.008C18.9992 5.5968 15.404 1.9968 10.9928 1.9968V2.0016Z" fill="black"/>
</g>
<defs>
<clipPath id="clip0_2023_773">
<rect width="25" height="24" fill="white"/>
</clipPath>
</defs>
</svg>
