<svg width="43" height="50" viewBox="0 0 43 50" fill="convertColors" xmlns="http://www.w3.org/2000/svg">
<g clip-path="url(#clip0_2118_2333)">
<path d="M42.3 44.13C42.3 44.03 42.3 43.93 42.29 43.83C42.22 43.37 42.12 42.92 42.19 42.45C42.19 42.27 42.17 42.09 42.16 41.91C42.06 41.61 42.04 41.3 42.08 40.99C42.08 40.87 42.07 40.74 42.06 40.62C41.99 40.16 41.89 39.71 41.96 39.25C41.96 39.07 41.94 38.89 41.93 38.71C41.83 38.41 41.81 38.1 41.85 37.79C41.85 37.67 41.84 37.54 41.83 37.42C41.76 36.96 41.66 36.51 41.73 36.05C41.73 35.87 41.71 35.69 41.7 35.51C41.6 35.21 41.58 34.9 41.62 34.59C41.62 34.47 41.61 34.34 41.6 34.22C41.53 33.76 41.43 33.31 41.5 32.85C41.5 32.67 41.48 32.49 41.47 32.31C41.36 31.98 41.35 31.65 41.38 31.31C41.38 31.21 41.38 31.11 41.37 31.01C41.3 30.55 41.2 30.1 41.27 29.64C41.27 29.46 41.25 29.28 41.24 29.1C41.13 28.77 41.12 28.44 41.15 28.1C41.15 28 41.15 27.9 41.14 27.8C41.07 27.34 40.97 26.89 41.04 26.43C41.04 26.25 41.02 26.07 41.01 25.89C40.91 25.59 40.89 25.28 40.93 24.97C40.93 24.85 40.92 24.72 40.91 24.6C40.84 24.14 40.74 23.69 40.81 23.23C40.81 23.05 40.79 22.87 40.78 22.69C40.68 22.39 40.66 22.08 40.7 21.77C40.7 21.65 40.69 21.52 40.68 21.4C40.61 20.94 40.51 20.49 40.58 20.03C40.58 19.85 40.56 19.67 40.55 19.49C40.45 19.19 40.43 18.88 40.47 18.57C40.47 18.45 40.46 18.32 40.45 18.2C40.38 17.74 40.28 17.29 40.35 16.83C40.35 16.65 40.33 16.47 40.32 16.29C40.19 15.94 40.2 15.57 40.12 15.21C40.11 15.16 40.1 15.12 40.09 15.07C40.03 15.03 40 14.98 40.02 14.91C40.01 14.87 39.99 14.82 39.98 14.78C39.84 14.68 39.82 14.53 39.78 14.38C39.76 14.36 39.76 14.34 39.76 14.32C39.64 14.25 39.57 14.14 39.55 14C39.52 13.95 39.49 13.91 39.46 13.86C39.38 13.83 39.33 13.78 39.32 13.69C39.24 13.67 39.18 13.62 39.18 13.53C39.07 13.43 38.97 13.32 38.86 13.22C38.64 13.12 38.45 12.98 38.29 12.8C38.25 12.78 38.22 12.76 38.18 12.73C38.09 12.76 38.04 12.71 38 12.63C37.98 12.63 37.96 12.63 37.94 12.61C37.65 12.53 37.36 12.43 37.1 12.29C37.05 12.29 37.01 12.27 36.96 12.27C36.67 12.31 36.39 12.19 36.1 12.17C35.03 12.17 33.97 12.17 32.9 12.16C32.82 12.17 32.78 12.13 32.78 12.06C32.79 11.67 32.72 11.27 32.8 10.88L32.77 10.34C32.67 10.2 32.66 10.04 32.69 9.87999C32.69 9.82999 32.68 9.77999 32.67 9.73999C32.61 9.55999 32.51 9.38999 32.57 9.18999C32.56 9.11999 32.54 9.04999 32.53 8.96999C32.4 8.74999 32.35 8.51999 32.34 8.26999C32.33 8.21999 32.32 8.17999 32.31 8.12999C32.18 7.96999 32.13 7.77999 32.12 7.57999C32.11 7.52999 32.09 7.48999 32.08 7.43999L31.31 5.82999C31.31 5.82999 31.29 5.78999 31.29 5.76999C31.16 5.69999 31.11 5.57999 31.09 5.44999C31.07 5.42999 31.06 5.41999 31.06 5.38999C30.93 5.31999 30.87 5.20999 30.85 5.06999C30.82 5.01999 30.79 4.97999 30.76 4.92999C30.68 4.89999 30.63 4.84999 30.63 4.75999C30.52 4.60999 30.41 4.46999 30.3 4.31999C30.22 4.29999 30.16 4.23999 30.16 4.14999C30.05 4.02999 29.95 3.89999 29.84 3.77999C29.71 3.70999 29.59 3.61999 29.55 3.45999C29.52 3.42999 29.5 3.40999 29.47 3.37999C29.32 3.32999 29.23 3.21999 29.16 3.07999C29.04 3.03999 28.96 2.96999 28.92 2.85999C28.85 2.79999 28.78 2.73999 28.71 2.67999C28.56 2.63999 28.45 2.54999 28.37 2.40999C28.35 2.40999 28.33 2.38999 28.32 2.36999C28.02 2.21999 27.76 2.02999 27.52 1.79999C27.46 1.75999 27.39 1.71999 27.33 1.66999C27.25 1.66999 27.18 1.64999 27.14 1.55999C27.07 1.51999 27.01 1.47999 26.94 1.43999C26.11 1.04999 25.27 0.68999 24.41 0.36999C24.36 0.35999 24.32 0.34999 24.27 0.33999C23.97 0.31999 23.69 0.26999 23.42 0.12999C23.35 0.12999 23.28 0.10999 23.21 0.0999902C22.96 0.14999 22.74 0.0499902 22.51 -9.76585e-06C22.46 -9.76585e-06 22.41 -9.76585e-06 22.36 -0.0100098C21.62 -0.0100098 20.87 -0.0100098 20.13 -0.0100098C20.06 -0.0100098 19.98 -9.76585e-06 19.91 0.00999023C19.68 0.0599902 19.45 0.15999 19.21 0.10999C19.14 0.10999 19.07 0.12999 18.99 0.13999C18.72 0.27999 18.43 0.31999 18.14 0.34999C18.09 0.34999 18.05 0.36999 18 0.37999C17.53 0.60999 17.03 0.73999 16.54 0.90999C16.5 0.91999 16.45 0.93999 16.41 0.94999C16.15 1.13999 15.86 1.28999 15.55 1.37999C15.53 1.39999 15.51 1.39999 15.49 1.39999C15.37 1.55999 15.19 1.61999 15.01 1.67999C15 1.69999 14.98 1.70999 14.96 1.70999C14.8 1.86999 14.63 2.00999 14.41 2.06999C14.36 2.09999 14.32 2.12999 14.27 2.15999C14.24 2.23999 14.19 2.28999 14.1 2.28999C13.96 2.39999 13.81 2.50999 13.67 2.61999C13.6 2.76999 13.48 2.84999 13.34 2.88999C12.86 3.34999 12.38 3.82999 11.95 4.33999C11.94 4.45999 11.86 4.53999 11.75 4.58999C11.75 4.60999 11.73 4.62999 11.71 4.63999C11.71 4.76999 11.63 4.83999 11.52 4.89999C11.52 4.91999 11.5 4.93999 11.48 4.94999C11.49 5.03999 11.45 5.09999 11.36 5.12999C11.36 5.14999 11.35 5.16999 11.33 5.18999C11.22 5.44999 11.1 5.68999 10.9 5.88999C10.9 5.90999 10.9 5.92999 10.88 5.94999C10.9 6.03999 10.85 6.09999 10.78 6.13999C10.76 6.17999 10.74 6.20999 10.72 6.24999C10.67 6.45999 10.62 6.65999 10.45 6.80999C10.44 6.84999 10.42 6.88999 10.41 6.93999C10.35 7.20999 10.26 7.46999 10.11 7.70999C10.1 7.75999 10.09 7.79999 10.07 7.84999C10.11 7.93999 10.09 7.99999 9.99996 8.03999C9.98996 8.10999 9.97996 8.16999 9.95996 8.23999C9.98996 8.35999 9.95996 8.45999 9.86996 8.54999C9.86996 8.59999 9.85996 8.63999 9.84996 8.68999C9.90996 8.88999 9.79996 9.05999 9.73996 9.23999C9.73996 9.28999 9.72996 9.32999 9.71996 9.37999C9.74996 9.54999 9.71996 9.69999 9.63996 9.84999C9.63996 9.97999 9.61996 10.11 9.60996 10.23C9.61996 10.82 9.62996 11.41 9.63996 12C9.63996 12.08 9.61996 12.15 9.50996 12.13C8.43996 12.13 7.37996 12.13 6.30996 12.13C6.01996 12.15 5.74996 12.27 5.44996 12.23C5.39996 12.23 5.35996 12.25 5.30996 12.26C5.03996 12.4 4.75996 12.5 4.46996 12.58C4.44996 12.59 4.42996 12.6 4.40996 12.6C4.37996 12.68 4.32996 12.73 4.22996 12.7C4.15996 12.74 4.08996 12.78 4.01996 12.83C3.89996 13 3.72996 13.11 3.54996 13.19C3.39996 13.35 3.23996 13.5 3.08996 13.66C3.08996 13.75 3.03996 13.8 2.94996 13.83C2.91996 13.88 2.88996 13.92 2.84996 13.97C2.82996 14.11 2.75996 14.22 2.63996 14.29C2.63996 14.31 2.63996 14.33 2.61996 14.35C2.57996 14.5 2.54996 14.65 2.41996 14.75C2.40996 14.79 2.38996 14.84 2.37996 14.88C2.27996 15.34 2.17996 15.8 2.07996 16.26L2.04996 16.8C2.10996 17.24 2.02996 17.67 1.94996 18.1C1.94996 18.25 1.93996 18.4 1.92996 18.55C1.96996 18.86 1.94996 19.17 1.84996 19.47C1.84996 19.65 1.82996 19.83 1.81996 20.01C1.87996 20.45 1.80996 20.88 1.71996 21.31C1.71996 21.46 1.70996 21.61 1.69996 21.76C1.73996 22.07 1.71996 22.38 1.61996 22.68C1.61996 22.86 1.59996 23.04 1.58996 23.22C1.64996 23.69 1.55996 24.14 1.48996 24.6C1.48996 24.72 1.47996 24.85 1.46996 24.97C1.50996 25.28 1.48996 25.59 1.38996 25.89C1.38996 26.07 1.36996 26.25 1.35996 26.43C1.41996 26.9 1.32996 27.35 1.25996 27.81C1.25996 27.93 1.24996 28.06 1.23996 28.18C1.27996 28.49 1.25996 28.8 1.15996 29.1C1.15996 29.28 1.13996 29.46 1.12996 29.64C1.18996 30.11 1.09996 30.56 1.02996 31.02C1.02996 31.14 1.01996 31.27 1.00996 31.39C1.04996 31.7 1.02996 32.01 0.929961 32.31C0.929961 32.49 0.909961 32.67 0.899961 32.85C0.969961 33.32 0.869961 33.77 0.799961 34.23C0.799961 34.35 0.789961 34.48 0.779961 34.6C0.819961 34.91 0.799961 35.22 0.699961 35.52C0.699961 35.7 0.679961 35.88 0.669961 36.06C0.739961 36.53 0.639961 36.98 0.569961 37.44C0.569961 37.56 0.559961 37.69 0.549961 37.81C0.589961 38.12 0.569961 38.43 0.469961 38.73C0.469961 38.91 0.449961 39.09 0.439961 39.27C0.509961 39.74 0.409961 40.19 0.339961 40.65C0.339961 40.77 0.329961 40.9 0.319961 41.02C0.359961 41.33 0.339961 41.64 0.239961 41.94C0.239961 42.12 0.219961 42.3 0.209961 42.48C0.279961 42.95 0.179961 43.4 0.109961 43.86C0.109961 43.96 0.109961 44.06 0.0999609 44.16C0.149961 44.84 -0.0400391 45.52 0.0399609 46.21C0.0499609 46.32 0.139961 46.46 -0.0400391 46.54V46.62C0.0999609 46.84 0.179961 47.08 0.279961 47.31C0.919961 48.83 2.03996 49.75 3.68996 50C3.73996 50 3.78996 50.02 3.83996 50.04C4.07996 49.96 4.31996 50.04 4.54996 50.04C15.63 50.04 26.71 50.04 37.8 50.04C38.09 50.04 38.38 50.03 38.67 50.02C39.09 50.05 39.46 49.85 39.82 49.69C41.17 49.08 41.98 48.02 42.3 46.58C42.42 45.78 42.24 44.98 42.27 44.19L42.3 44.13ZM17.32 28.38C17.75 28.99 18.36 29.28 19.11 29.28C20.34 29.28 21.57 29.28 22.8 29.28C25.87 29.31 28.33 31.56 28.49 34.47C28.67 37.7 26.6 40.17 23.4 40.56C23.19 40.59 22.98 40.63 22.71 40.68C22.71 41.34 22.72 41.98 22.71 42.61C22.68 43.71 21.93 44.48 20.92 44.48C19.91 44.48 19.18 43.7 19.15 42.59C19.14 41.98 19.15 41.37 19.15 40.67C18.82 40.65 18.54 40.62 18.26 40.62C17.22 40.62 16.17 40.65 15.13 40.6C13.99 40.54 13.32 39.8 13.36 38.74C13.39 37.73 14.1 37.05 15.2 37.02C15.95 37 16.7 37.02 17.45 37.02C19.22 37.02 20.98 37.02 22.75 37.02C23.99 37.01 24.9 36.17 24.95 35.03C25 33.88 24.09 32.92 22.83 32.87C21.52 32.83 20.21 32.88 18.9 32.85C16.14 32.78 13.84 30.81 13.44 28.21C13 25.38 14.49 22.81 17.18 21.87C17.78 21.66 18.42 21.61 19.17 21.46C19.17 20.92 19.17 20.31 19.17 19.71C19.18 18.46 19.86 17.71 20.97 17.72C22.07 17.72 22.72 18.48 22.73 19.75C22.73 20.33 22.73 20.91 22.73 21.58C24.04 21.58 25.26 21.58 26.49 21.58C27.77 21.58 28.51 22.23 28.53 23.33C28.54 24.46 27.78 25.13 26.47 25.14C24.04 25.14 21.6 25.14 19.17 25.14C18.3 25.14 17.62 25.5 17.2 26.29C16.8 27.03 16.88 27.74 17.35 28.41L17.32 28.38ZM28.77 12.17C26.24 12.16 23.71 12.17 21.18 12.17C18.65 12.17 16.17 12.17 13.66 12.17C13.4 12.17 13.28 12.15 13.28 11.83C13.24 8.16999 15.35 5.15999 18.8 3.98999C23.03 2.55999 27.8 5.17999 28.89 9.51999C29.08 10.27 29.14 11.02 29.15 11.79C29.15 12.1 29.06 12.17 28.76 12.17H28.77Z" fill="#010101"/>
</g>
<defs>
<clipPath id="clip0_2118_2333">
<rect width="42.37" height="50" fill="white"/>
</clipPath>
</defs>
</svg>
