<svg width="50" height="50" viewBox="0 0 50 50" fill="convertColors" xmlns="http://www.w3.org/2000/svg">
<g clip-path="url(#clip0_2053_1325)">
<path d="M50 19.53V20.83C49.71 21.97 48.96 22.78 48.1 23.54C45.35 25.96 42.66 28.46 39.86 30.82C38.93 31.6 38.8 32.34 38.98 33.44C39.64 37.55 40.22 41.67 40.81 45.79C41.02 47.27 40.51 48.49 39.28 49.35C38.87 49.64 38.35 49.79 37.89 50H36.72C36.1 49.71 35.43 49.49 34.87 49.11C31.72 47.01 28.59 44.87 25.47 42.72C25.1 42.47 24.87 42.48 24.51 42.72C22.68 43.99 20.85 45.26 18.98 46.48C17.14 47.68 15.27 48.82 13.41 49.99H12.11C12.11 49.99 12.05 49.91 12.02 49.91C10.24 49.57 8.84002 47.79 9.20002 45.54C9.90002 41.18 10.49 36.81 11.15 32.44C11.21 32.01 11.13 31.73 10.8 31.43C7.89002 28.86 5.02002 26.26 2.11002 23.7C1.19002 22.89 0.34002 22.06 0.0200195 20.83V19.66C0.50002 17.83 1.65002 16.8 3.55002 16.55C7.69002 16.01 11.83 15.42 15.96 14.83C16.19 14.8 16.5 14.55 16.59 14.33C18.15 10.67 19.73 7.01 21.2 3.31C21.83 1.74 22.63 0.46 24.36 0H25.66C27.11 0.43 28.02 1.37 28.59 2.78C30.04 6.37 31.61 9.92 33.03 13.53C33.42 14.51 33.93 14.88 34.96 15.01C38.96 15.49 42.95 16.08 46.94 16.64C48.21 16.82 49.12 17.55 49.67 18.71C49.8 18.98 49.89 19.26 50 19.54V19.53Z" fill="black"/>
</g>
<defs>
<clipPath id="clip0_2053_1325">
<rect width="50" height="50" fill="white"/>
</clipPath>
</defs>
</svg>
