<svg width="50" height="50" viewBox="0 0 50 50" fill="convertColors" xmlns="http://www.w3.org/2000/svg">
<g clip-path="url(#clip0_2053_1324)">
<path d="M50 19.66V20.7C49.77 21.95 48.95 22.79 48.04 23.59C45.1 26.18 42.18 28.81 39.24 31.41C38.92 31.7 38.78 31.96 38.85 32.41C39.49 36.61 40.1 40.81 40.73 45.01C40.94 46.39 40.99 47.75 39.9 48.78C39.34 49.31 38.56 49.6 37.88 50H36.71C36.09 49.71 35.42 49.49 34.86 49.11C31.73 47.02 28.62 44.89 25.52 42.76C25.11 42.48 24.85 42.5 24.45 42.77C22.64 44.03 20.82 45.29 18.98 46.5C17.14 47.7 15.27 48.84 13.41 50.01H12.11C12.11 50.01 12.05 49.93 12.02 49.93C10.14 49.55 8.85 47.71 9.2 45.56C9.9 41.22 10.49 36.87 11.14 32.52C11.21 32.04 11.12 31.73 10.74 31.4C7.85 28.85 4.99 26.26 2.09 23.72C1.17 22.91 0.32 22.08 0 20.85V19.68C0.48 17.85 1.63 16.82 3.53 16.57C7.67 16.03 11.81 15.44 15.95 14.85C16.18 14.82 16.49 14.58 16.58 14.36C18.14 10.7 19.72 7.04002 21.19 3.34002C21.82 1.77002 22.62 0.49002 24.35 0.0200195H25.65C27.13 0.45002 28.04 1.43002 28.61 2.85002C30.16 6.68002 31.78 10.48 33.39 14.29C33.49 14.52 33.76 14.8 33.98 14.84C37.13 15.31 40.28 15.73 43.43 16.17C44.5 16.32 45.57 16.46 46.65 16.61C48.48 16.86 49.54 17.95 50 19.69V19.66ZM3.65 20.17C3.96 20.47 4.15 20.65 4.34 20.82C7.55 23.71 10.74 26.61 13.97 29.48C14.73 30.15 15.01 30.89 14.85 31.89C14.14 36.47 13.48 41.06 12.8 45.65C12.77 45.83 12.8 46.01 12.8 46.27C13 46.14 13.13 46.07 13.25 45.99C16.73 43.66 20.2 41.32 23.67 38.99C24.71 38.29 25.33 38.29 26.35 38.99C28.9 40.72 31.44 42.46 33.99 44.19C35.04 44.9 36.1 45.61 37.19 46.36C37.2 46.2 37.22 46.13 37.21 46.07C36.53 41.35 35.87 36.63 35.16 31.91C35 30.88 35.29 30.13 36.08 29.45C39.21 26.7 42.31 23.92 45.41 21.14C45.71 20.87 46 20.59 46.3 20.31C46.22 20.24 46.19 20.2 46.16 20.2C41.59 19.54 37.02 18.87 32.45 18.23C31.54 18.1 30.95 17.7 30.59 16.84C29.18 13.41 27.74 10 26.3 6.58002C25.9 5.62002 25.49 4.67002 25.03 3.60002C24.91 3.86002 24.84 3.99002 24.79 4.13002C22.99 8.38002 21.19 12.63 19.41 16.89C19.1 17.64 18.59 18.09 17.78 18.2C14.58 18.64 11.38 19.08 8.18 19.52C6.72 19.72 5.27 19.93 3.66 20.15L3.65 20.17Z" fill="black"/>
</g>
<defs>
<clipPath id="clip0_2053_1324">
<rect width="50" height="50" fill="white"/>
</clipPath>
</defs>
</svg>
