<svg width="36" height="24" viewBox="0 0 36 24" fill="convertColors" xmlns="http://www.w3.org/2000/svg">
<g clip-path="url(#clip0_2022_761)">
<path d="M29.1552 0C31.1088 0 33.0624 0 35.016 0C35.2368 0.1152 35.4816 0.2016 35.6688 0.36C35.8128 0.48 35.8896 0.6816 36 0.8448V23.1552C35.7984 23.5824 35.5056 23.904 35.016 24H12.984C12.2928 23.7552 12.0192 23.424 12.0192 22.7952C12.0192 15.6 12.0192 8.4048 12.0192 1.2096C12.0192 1.0848 12.0288 0.96 12.0624 0.84C12.192 0.3648 12.5376 0.1296 12.984 0C14.9376 0 16.8912 0 18.8448 0C18.8592 0.1152 18.888 0.2304 18.888 0.3456C18.888 3.4608 18.888 6.5808 18.888 9.696C18.888 10.4352 19.3296 10.9152 20.0448 10.92C22.6848 10.9296 25.3248 10.92 27.9648 10.92C28.3152 10.92 28.6224 10.8 28.8576 10.5264C29.0736 10.272 29.1264 9.9744 29.1264 9.6528C29.1264 6.552 29.1264 3.4512 29.1264 0.3504C29.1264 0.2352 29.1456 0.12 29.1552 0.0048V0ZM28.7568 17.328C28.1472 17.328 27.5376 17.328 26.928 17.328C26.664 17.328 26.4192 17.3808 26.2032 17.5488C25.8096 17.8608 25.656 18.3456 25.8144 18.8016C25.9728 19.2624 26.4 19.5648 26.9376 19.5648C28.1568 19.5696 29.3712 19.5648 30.5904 19.5648C30.744 19.5648 30.9024 19.536 31.0464 19.488C31.5408 19.3056 31.8432 18.7872 31.7616 18.2784C31.68 17.7648 31.248 17.352 30.72 17.3376C30.0624 17.3184 29.4096 17.3376 28.752 17.3376L28.7568 17.328Z" fill="black"/>
<path d="M26.8608 7.85151e-05C26.8656 0.100879 26.88 0.201678 26.88 0.302478C26.88 2.98568 26.88 5.67368 26.88 8.35688C26.88 8.56808 26.7712 8.67368 26.5536 8.67368C24.8448 8.67368 23.136 8.67368 21.4272 8.67368C21.2064 8.67368 21.1296 8.62088 21.1296 8.38568C21.1344 5.67848 21.1296 2.97128 21.1344 0.259279C21.1344 0.168079 21.168 0.0816785 21.1872 -0.00952148C23.0784 -0.00952148 24.9696 -0.00952148 26.8608 -0.00952148V7.85151e-05Z" fill="black"/>
<path d="M0 18.3746C0.0912 18.221 0.1632 18.053 0.2736 17.9138C0.4944 17.6354 0.8016 17.5058 1.1568 17.5058C3.6384 17.5058 6.1248 17.501 8.6064 17.5058C9.2112 17.5058 9.6528 17.9042 9.7488 18.4802C9.8304 18.9746 9.5232 19.5026 9.0192 19.6802C8.8608 19.7378 8.6832 19.7522 8.5152 19.7522C6.096 19.7522 3.6768 19.7522 1.2528 19.757C0.6816 19.757 0.2784 19.5266 0.0576 18.9938C0.048 18.9698 0.0192 18.9506 0 18.9266C0 18.7394 0 18.5522 0 18.365L0 18.3746Z" fill="black"/>
<path d="M0 5.06418C0.0432 4.99218 0.0912 4.92499 0.1296 4.84819C0.3264 4.49779 0.6144 4.25298 1.0224 4.25298C3.5904 4.24338 6.1584 4.23858 8.7264 4.25298C9.264 4.25298 9.6816 4.69458 9.7536 5.23698C9.8208 5.73618 9.4896 6.26418 8.9952 6.42258C8.8416 6.47058 8.6736 6.48978 8.5104 6.48978C6.0912 6.48978 3.6672 6.48978 1.248 6.49458C0.6192 6.49938 0.2304 6.18259 0 5.62579C0 5.43859 0 5.25138 0 5.06418Z" fill="black"/>
<path d="M5.99998 13.0848C6.86878 13.0848 7.73278 13.0848 8.60158 13.0848C9.11998 13.0848 9.55678 13.4016 9.70078 13.8432C9.85918 14.3328 9.71038 14.8416 9.27358 15.12C9.08158 15.2448 8.82238 15.3264 8.59678 15.3264C6.84958 15.3408 5.09758 15.3408 3.35038 15.3312C2.75518 15.3312 2.30878 14.9472 2.20318 14.3904C2.11198 13.9008 2.38558 13.3824 2.87998 13.1808C3.04798 13.1136 3.24478 13.0896 3.42718 13.0848C4.28638 13.0752 5.14558 13.0848 6.00478 13.0848H5.99998Z" fill="black"/>
<path d="M6.00001 8.6641C6.84961 8.6641 7.69921 8.6641 8.55361 8.6641C9.12481 8.6641 9.56641 8.9761 9.70561 9.4465C9.93121 10.2097 9.39841 10.9105 8.57281 10.9105C7.28641 10.9153 5.99521 10.9105 4.70881 10.9105C4.24801 10.9105 3.78721 10.9201 3.32641 10.9105C2.74561 10.8961 2.28961 10.5025 2.19841 9.9457C2.11681 9.4465 2.41921 8.9233 2.92321 8.7409C3.09601 8.6785 3.28801 8.6641 3.47521 8.6593C4.32001 8.6497 5.16001 8.6593 6.00481 8.6593L6.00001 8.6641Z" fill="black"/>
</g>
<defs>
<clipPath id="clip0_2022_761">
<rect width="36" height="24" fill="white"/>
</clipPath>
</defs>
</svg>
