<svg width="31" height="24" viewBox="0 0 31 24" fill="convertColors" xmlns="http://www.w3.org/2000/svg">
<g clip-path="url(#clip0_233_215)">
<path d="M14.8818 14.0098C18.4247 14.0298 21.9727 14.0094 25.5156 14.0244C26.0083 14.0244 26.5211 14.08 26.999 14.21C28.9157 14.75 30.1722 16.0099 30.7783 17.9297C30.8867 18.2747 30.9309 18.6449 31.0098 19.0049L31 19.0098V20C30.9852 20.065 30.961 20.1352 30.9561 20.2002C30.892 20.7451 30.758 21.2747 30.5166 21.7646C29.4917 23.8696 27.8168 24.9653 25.5107 24.9854C21.9975 25.0104 18.484 25.0004 14.9707 24.9854C14.4976 24.9854 14.0139 24.9451 13.5605 24.8301C11.5601 24.32 10.24 23.0447 9.61426 21.0498C9.50586 20.7098 9.46062 20.3501 9.38672 19.9951V19.0049C9.40149 18.93 9.41685 18.8601 9.43652 18.7852C9.54492 18.3552 9.61387 17.915 9.7666 17.5C10.5255 15.47 12.5166 13.9948 14.8818 14.0098ZM1.69043 9.85547C2.62658 9.8556 3.38086 10.6204 3.38086 11.5703V15.2246L10.8906 10.1445C11.6691 9.62 12.7132 9.83534 13.2305 10.6201C13.7479 11.4051 13.5363 12.4701 12.7627 12.9951L2.63184 19.8496C2.35101 20.0396 2.02048 20.1396 1.69531 20.1396H1.69043C1.41941 20.1396 1.14291 20.0746 0.891602 19.9346C0.344867 19.6345 0 19.0546 0 18.4248V11.5703C0 10.6253 0.754172 9.85547 1.69043 9.85547ZM20.1934 0C23.8447 0 26.8017 3.00992 26.7969 6.71484H26.792C26.7871 10.4248 23.8204 13.4202 20.1689 13.4102C16.5226 13.4001 13.5762 10.3952 13.5859 6.69531C13.5958 2.9954 16.547 0.000135697 20.1934 0Z" fill="black"/>
</g>
<defs>
<clipPath id="clip0_233_215">
<rect width="31.0098" height="24" fill="white"/>
</clipPath>
</defs>
</svg>
