<svg width="35" height="24" viewBox="0 0 35 24" fill="convertColors" xmlns="http://www.w3.org/2000/svg">
<path d="M18.9004 13.4541C22.3535 13.472 25.8066 13.4522 29.2598 13.4668C29.7418 13.469 30.2398 13.5175 30.7021 13.6465C32.5674 14.1663 33.7931 15.377 34.3857 17.2178C34.4929 17.5508 34.5363 17.904 34.6094 18.248V19.1982C34.5944 19.2625 34.5731 19.3262 34.5654 19.3916C34.5022 19.9155 34.3719 20.4232 34.1387 20.8955C33.1421 22.9152 31.508 23.9685 29.2598 23.9854C25.8372 24.0109 22.4141 23.9974 18.9912 23.9854C18.5322 23.9839 18.0601 23.949 17.6172 23.8379C15.6666 23.3491 14.3838 22.1248 13.7715 20.21C13.6669 19.8828 13.6234 19.5357 13.5518 19.1982V18.248C13.5671 18.1782 13.5811 18.1075 13.5986 18.0381C13.7032 17.6265 13.77 17.2001 13.9199 16.8057C14.6615 14.8555 16.5996 13.4424 18.9004 13.4541ZM6.97168 4.53613C7.87994 4.53639 8.61621 5.27332 8.61621 6.18164V9.47168H11.9062C12.8147 9.47168 13.5518 10.2087 13.5518 11.1172C13.5515 12.0254 12.8146 12.7617 11.9062 12.7617H8.61621V16.0518C8.61621 16.9601 7.87994 17.697 6.97168 17.6973C6.0632 17.6973 5.32617 16.9602 5.32617 16.0518V12.7617H2.03613C1.12781 12.7617 0.390887 12.0254 0.390625 11.1172C0.390625 10.2087 1.12765 9.47168 2.03613 9.47168H5.32617V6.18164C5.32617 5.27316 6.0632 4.53613 6.97168 4.53613ZM24.0811 0C27.6372 0.000208139 30.5195 2.88924 30.5127 6.44727C30.5057 10.0091 27.6192 12.8853 24.0625 12.874C20.5116 12.8627 17.6409 9.97773 17.6484 6.42871C17.6561 2.87411 20.5327 0 24.0811 0Z" fill="black"/>
</svg>
