<svg width="57" height="51" viewBox="0 0 57 51" fill="convertColors" xmlns="http://www.w3.org/2000/svg">
<g clip-path="url(#clip0_2116_2307)">
<path d="M44 39.0165V40.9968C43.9687 41.1308 43.9244 41.2633 43.9083 41.3997C43.7762 42.4911 43.5035 43.5475 43.0161 44.5315C40.9338 48.7396 37.5199 50.9347 32.822 50.9697C25.6705 51.023 18.519 50.9948 11.3667 50.9697C10.4072 50.9666 9.42104 50.8943 8.49521 50.6627C4.4191 49.6444 1.73785 47.0937 0.458333 43.1042C0.239861 42.4226 0.149722 41.6998 0 40.9968C0 40.3364 0 39.6761 0 39.0165C0.0320833 38.871 0.0603472 38.724 0.0970139 38.5793C0.315486 37.7217 0.455278 36.8344 0.768472 36.0126C2.31764 31.9492 6.36701 29.0055 11.1749 29.0299C18.3906 29.0672 25.6063 29.0253 32.822 29.0558C33.8296 29.0603 34.87 29.1616 35.8363 29.4305C39.7337 30.5136 42.2942 33.0353 43.5325 36.8702C43.7563 37.5641 43.8472 38.2998 44 39.0165Z" fill="black"/>
<path d="M35.4391 14.4323C35.4246 21.8529 29.3937 27.844 21.9618 27.8204C14.5422 27.7968 8.54486 21.7867 8.5609 14.3927C8.57695 6.98725 14.5857 1 22 1C29.4311 1 35.4536 7.01924 35.4391 14.4323Z" fill="black"/>
<path d="M53.71 0.959961C55.02 0.959961 56.03 1.43996 56.66 2.59996C56.8 2.85996 56.89 3.15996 57 3.43996V4.47996C56.15 6.50996 55.49 6.94996 53.26 6.94996C47.3 6.94996 46.19 6.94996 40.42 6.93996C39.83 6.93996 39.21 6.81996 38.66 6.60996C37.71 6.24996 37.3 5.39996 37 4.48996V3.44996C37.85 1.39996 38.51 0.959961 40.74 0.959961C46.42 0.959961 47.63 0.989961 53.71 0.959961Z" fill="black"/>
<path d="M53.71 10.9648C55.02 10.9648 56.03 11.4448 56.66 12.6048C56.8 12.8648 56.89 13.1648 57 13.4448V14.4848C56.15 16.5148 55.49 16.9548 53.26 16.9548C47.3 16.9548 46.19 16.9548 40.42 16.9448C39.83 16.9448 39.21 16.8248 38.66 16.6148C37.71 16.2548 37.3 15.4048 37 14.4948V13.4548C37.85 11.4048 38.51 10.9648 40.74 10.9648C46.42 10.9648 47.63 10.9948 53.71 10.9648Z" fill="black"/>
<path d="M53.71 20.97C55.02 20.97 56.03 21.45 56.66 22.61C56.8 22.87 56.89 23.17 57 23.45V24.49C56.15 26.52 55.49 26.96 53.26 26.96C47.3 26.96 46.19 26.96 40.42 26.95C39.83 26.95 39.21 26.83 38.66 26.62C37.71 26.26 37.3 25.41 37 24.5V23.46C37.85 21.41 38.51 20.97 40.74 20.97C46.42 20.97 47.63 21 53.71 20.97Z" fill="black"/>
</g>
<defs>
<clipPath id="clip0_2116_2307">
<rect width="57" height="51" fill="white"/>
</clipPath>
</defs>
</svg>
