<svg width="21" height="24" viewBox="0 0 21 24" fill="currentColor" xmlns="http://www.w3.org/2000/svg">
<path d="M21 18.2479V19.1984C20.9851 19.2627 20.9639 19.3263 20.9562 19.3918C20.8932 19.9157 20.763 20.4227 20.5304 20.8951C19.5366 22.9149 17.9072 23.9686 15.6651 23.9854C12.2518 24.011 8.83859 23.9974 5.425 23.9854C4.96708 23.9839 4.49641 23.9492 4.05453 23.838C2.10911 23.3493 0.829427 22.1249 0.21875 20.21C0.114479 19.8828 0.0714583 19.5358 0 19.1984C0 18.8814 0 18.5645 0 18.2479C0.0153125 18.178 0.0288021 18.1075 0.0463021 18.038C0.150573 17.6264 0.217292 17.2005 0.366771 16.806C1.10615 14.8556 3.0388 13.4426 5.33349 13.4543C8.77734 13.4722 12.2212 13.4521 15.6651 13.4667C16.1459 13.4689 16.6425 13.5175 17.1037 13.6466C18.9638 14.1665 20.1859 15.3769 20.7769 17.2176C20.8837 17.5507 20.9271 17.9039 21 18.2479Z" fill="black"/>
<path d="M16.9141 6.44748C16.9072 10.0094 14.0288 12.8851 10.4818 12.8738C6.94057 12.8624 4.07823 9.97758 4.08589 6.42847C4.09354 2.87387 6.96135 0 10.5 0C14.0467 0 16.921 2.88923 16.9141 6.44748Z" fill="black"/>
</svg>
