<svg width="34" height="24" viewBox="0 0 34 24" fill="convertColors" xmlns="http://www.w3.org/2000/svg">
<path d="M33 14.7585V14.7442C32.884 14.5015 32.7825 14.2587 32.6592 14.0231C31.731 12.2595 30.5853 10.6458 29.2148 9.18926C29.0553 9.02504 29.0263 8.92508 29.2148 8.75372C29.6354 8.36816 30.0342 7.96117 30.433 7.56133C30.7593 7.23289 30.8609 6.84018 30.7086 6.40464C30.4403 5.63351 29.4831 5.41931 28.874 5.99051C28.4172 6.41892 27.9821 6.85446 27.5398 7.29715C27.4165 7.42567 27.3367 7.42567 27.199 7.31143C26.2853 6.56886 25.3064 5.93339 24.2622 5.39075C24.0011 5.25509 24.0011 5.25509 24.1534 5.01947C24.5667 4.39114 24.9946 3.77709 25.3861 3.13449C25.7922 2.48474 25.4586 1.69934 24.719 1.49227C24.2622 1.36375 23.7691 1.55653 23.479 1.99922C22.986 2.73464 22.4929 3.47721 22.0143 4.22692C21.92 4.36972 21.8402 4.40542 21.6735 4.3483C20.593 4.01272 19.4836 3.79851 18.3524 3.71997C18.1566 3.70569 18.1131 3.62715 18.1131 3.44865C18.1203 2.67038 18.1131 1.89212 18.1131 1.11385C18.1131 0.621186 17.8665 0.278463 17.417 0.0785407C17.3662 0.0571205 17.3227 0.0285603 17.2792 0H16.7208C16.7208 0 16.6701 0.0357003 16.6483 0.0499805C16.1117 0.271322 15.8724 0.671166 15.8869 1.23523C15.9014 1.9778 15.8869 2.71322 15.8869 3.45579C15.8869 3.64143 15.8217 3.70569 15.6404 3.71997C14.5309 3.79851 13.4432 3.99844 12.3845 4.33402C12.1815 4.39828 12.0727 4.35544 11.9567 4.1698C11.4854 3.43437 10.9995 2.70608 10.5137 1.98494C10.2164 1.54939 9.72332 1.36375 9.26649 1.49941C8.51235 1.72076 8.21505 2.52044 8.64287 3.19161C9.04895 3.81279 9.45502 4.43398 9.8756 5.04803C9.98436 5.20511 9.97711 5.28365 9.79583 5.37647C8.73714 5.90483 7.75096 6.54744 6.8373 7.29715C6.67052 7.43281 6.5835 7.41139 6.44573 7.26859C6.03966 6.84732 5.61183 6.44748 5.1985 6.03335C4.97371 5.81201 4.71992 5.67635 4.40086 5.66207C3.96578 5.64065 3.5307 5.89769 3.34217 6.28326C3.14639 6.69024 3.2189 7.18291 3.54521 7.51849C3.97303 7.95403 4.40811 8.3753 4.84319 8.79656C4.97371 8.91794 4.98097 8.99648 4.84319 9.13214C4.31385 9.67479 3.82076 10.2603 3.37118 10.8672C2.60254 11.9096 1.87016 12.9806 1.32631 14.1445C1.2973 14.1802 1.2683 14.2159 1.24654 14.2587C1.12327 14.4444 1.05801 14.63 1.02901 14.8156C1.02175 14.8371 1.00725 14.8585 1 14.8799V15.1512C1.02175 15.1869 1.03626 15.2298 1.05076 15.2726C1.08702 15.4225 1.15228 15.5653 1.24654 15.7224C2.57353 17.7288 4.24858 19.3924 6.23544 20.749C8.80965 22.5055 11.6594 23.5337 14.7702 23.8764C17.3662 24.1548 19.9187 23.9692 22.4276 23.2552C25.6254 22.3413 28.3592 20.6705 30.6506 18.3071C31.4192 17.5146 32.1443 16.6863 32.7027 15.7367C32.826 15.601 32.9275 15.444 32.9927 15.244V15.2226V14.7514L33 14.7585ZM21.5719 12.7593C21.5719 15.2369 19.5053 17.2504 16.9819 17.2433C14.4729 17.2361 12.4353 15.2155 12.4353 12.7379C12.4353 10.2531 14.4874 8.23963 17.0181 8.24677C19.5416 8.24677 21.5792 10.2746 21.5792 12.7593H21.5719ZM30.3605 15.1869C28.1779 18.0358 25.3716 20.0207 21.891 21.0561C19.5126 21.7558 17.0906 21.9271 14.6397 21.5844C10.1874 20.9704 6.59075 18.8783 3.81351 15.4011C3.49445 15.0013 3.4872 14.9941 3.81351 14.5872C5.66259 12.2238 7.99751 10.4959 10.8038 9.37491C10.8835 9.3392 10.9778 9.32492 11.1228 9.28208C10.0786 11.1242 9.85384 13.0021 10.5282 14.9513C11.014 16.365 11.9132 17.486 13.1604 18.3285C15.5969 19.9779 18.8962 19.8708 21.2239 18.0572C22.5654 17.0148 23.4065 15.6653 23.7328 14.0088C24.0591 12.3523 23.7473 10.8029 22.9207 9.33206C22.9352 9.31778 22.9497 9.29636 22.9642 9.28208C23.1527 9.35349 23.3413 9.42489 23.5298 9.50343C26.2853 10.6673 28.5767 12.4237 30.3605 14.8014C30.4693 14.9442 30.4693 15.0441 30.3605 15.1869Z" fill="black"/>
</svg>
