<svg width="32" height="16" viewBox="0 0 32 16" fill="none" xmlns="http://www.w3.org/2000/svg">
<g clip-path="url(#clip0_239_251)">
<path d="M1.39257 0C1.82774 0.177148 2.07434 0.53853 2.27743 0.928255C2.84316 2.01949 3.49592 3.05403 4.25748 4.0248C5.72257 5.89548 7.45603 7.47564 9.5884 8.60939C11.612 9.67936 13.7733 10.2037 16.0725 10.1895C19.8658 10.1683 23.0571 8.74402 25.7625 6.21435C27.4089 4.67671 28.7289 2.88397 29.7733 0.899911C30.0127 0.446413 30.3173 0.120461 30.8323 0H31.0209C31.5213 0.0992028 31.8404 0.389725 32 0.864482V1.36758C31.884 1.6085 31.7824 1.84942 31.6591 2.08326C30.7307 3.83348 29.5848 5.4349 28.214 6.88043C28.0544 7.0434 28.0254 7.1426 28.214 7.31267C28.6346 7.69531 29.0335 8.0992 29.4325 8.49601C29.7588 8.82197 29.8604 9.21169 29.7081 9.64393C29.4397 10.4092 28.4823 10.6218 27.8731 10.0549C27.4161 9.62976 26.981 9.19752 26.5385 8.75819C26.4152 8.63065 26.3354 8.63065 26.1976 8.74402C25.2838 9.48096 24.3046 10.1116 23.2602 10.6501C22.9991 10.7848 22.9991 10.7848 23.1514 11.0186C23.5648 11.6422 23.9927 12.2516 24.3844 12.8893C24.7906 13.5341 24.4569 14.3136 23.7171 14.519C23.2602 14.6466 22.767 14.4553 22.4769 14.0159C21.9837 13.2861 21.4905 12.5492 21.0118 11.8051C20.9175 11.6634 20.8377 11.628 20.6709 11.6847C19.5902 12.0177 18.4805 12.2303 17.349 12.3082C17.1532 12.3224 17.1097 12.4004 17.1097 12.5775C17.117 13.3499 17.1097 14.1222 17.1097 14.8946C17.1097 15.3835 16.8631 15.7236 16.4134 15.9221C16.3626 15.9433 16.3191 15.9717 16.2756 16H15.7171C15.7171 16 15.6664 15.9646 15.6446 15.9504C15.1079 15.7307 14.8685 15.3339 14.883 14.7741C14.8976 14.0372 14.883 13.3074 14.883 12.5704C14.883 12.3862 14.8178 12.3224 14.6364 12.3082C13.5267 12.2303 12.4388 12.0319 11.3799 11.6988C11.1768 11.6351 11.068 11.6776 10.9519 11.8618C10.4805 12.5917 9.99456 13.3144 9.50861 14.0301C9.21124 14.4624 8.71804 14.6466 8.26111 14.512C7.5068 14.2923 7.20943 13.4987 7.63735 12.8326C8.04352 12.2161 8.44968 11.5996 8.87035 10.9903C8.97915 10.8344 8.97189 10.7564 8.79057 10.6643C7.73164 10.1399 6.74524 9.50221 5.83137 8.75819C5.66455 8.62356 5.57752 8.64482 5.43971 8.78654C5.03355 9.20461 4.60562 9.60142 4.1922 10.0124C3.96736 10.2321 3.71351 10.3667 3.39438 10.3809C2.9592 10.4021 2.52403 10.147 2.33545 9.76439C2.13962 9.3605 2.21215 8.87157 2.53853 8.53853C2.96645 8.10629 3.40163 7.68822 3.83681 7.27015C3.96736 7.14969 3.97461 7.07174 3.83681 6.93711C3.30734 6.39858 2.81414 5.81754 2.36446 5.21524C1.44334 3.96103 0.56573 2.68556 0 1.22586V0.956599C0.0797824 0.807795 0.108794 0.644818 0.203083 0.5031C0.377153 0.240921 0.652765 0.120461 0.928377 0.00708592H1.39257V0Z" fill="black"/>
</g>
<defs>
<clipPath id="clip0_239_251">
<rect width="32" height="24" fill="white"/>
</clipPath>
</defs>
</svg>
