<svg width="51" height="50" viewBox="0 0 51 50" fill="convertColors" xmlns="http://www.w3.org/2000/svg">
<g clip-path="url(#clip0_2018_214)">
<path d="M50.01 17.32V46.94C49.97 47.04 49.93 47.14 49.9 47.24C49.56 48.45 48.81 49.29 47.65 49.76C47.42 49.85 47.18 49.92 46.95 50H3.07C2.83 49.92 2.58 49.84 2.34 49.75C0.99 49.24 0 47.85 0 46.24C0.02 36.86 0.02 27.48 0 18.09C0 17.24 0.3 16.67 1 16.2C6.16 12.67 11.31 9.11 16.46 5.56C19.17 3.7 21.9 1.85 24.62 0C24.88 0 25.14 0 25.4 0C25.66 0.15 25.93 0.29 26.18 0.46C33.7 5.64 41.21 10.82 48.73 15.99C49.25 16.35 49.77 16.7 50.01 17.32ZM9.39 46.87C9.39 46.7 9.39 46.57 9.39 46.44C9.39 43.35 9.39 40.26 9.39 37.16C9.39 36.03 10 35.41 11.14 35.41C12.83 35.41 14.53 35.41 16.22 35.41C16.5333 35.41 16.69 35.2567 16.69 34.95C16.69 31.56 16.72 28.18 16.68 24.79C16.66 23.57 17.4 22.87 18.57 22.89C20.94 22.94 23.32 22.9 25.7 22.9C27.66 22.9 29.63 22.9 31.59 22.9C31.82 22.9 32.05 22.9 32.27 22.97C32.97 23.18 33.37 23.77 33.37 24.59C33.37 28.05 33.37 31.51 33.37 34.97C33.37 35.29 33.45 35.4 33.79 35.4C35.5 35.38 37.22 35.4 38.93 35.4C40.06 35.4 40.67 36.03 40.67 37.16C40.67 40.25 40.67 43.34 40.67 46.44V46.86C40.83 46.86 40.94 46.86 41.06 46.86C42.75 46.86 44.45 46.86 46.14 46.86C46.77 46.86 46.92 46.71 46.92 46.07C46.92 37.01 46.92 27.95 46.92 18.89C46.92 18.62 46.85 18.46 46.62 18.31C39.54 13.44 32.47 8.57 25.41 3.69C25.13 3.49 24.95 3.51 24.67 3.69C20.47 6.6 16.26 9.49 12.06 12.39C9.18 14.37 6.31 16.35 3.43 18.33C3.24 18.46 3.13 18.6 3.17 18.83C3.17 18.85 3.17 18.87 3.17 18.9C3.17 27.96 3.17 37.02 3.17 46.08C3.17 46.71 3.32 46.86 3.96 46.86C5.35 46.86 6.74 46.86 8.13 46.86C8.54 46.86 8.95 46.86 9.42 46.86L9.39 46.87ZM23.45 26.07C23.31 26.06 23.21 26.05 23.12 26.05C22.13 26.05 21.15 26.05 20.16 26.05C19.89 26.05 19.81 26.14 19.81 26.4C19.81 29.28 19.81 32.17 19.81 35.05C19.81 35.29 19.87 35.4 20.13 35.39C23.38 35.39 26.64 35.39 29.89 35.39C30.16 35.39 30.22 35.29 30.22 35.05C30.22 32.17 30.22 29.28 30.22 26.4C30.22 26.14 30.15 26.04 29.87 26.04C28.88 26.05 27.9 26.04 26.91 26.04C26.81 26.04 26.7 26.06 26.57 26.07C26.57 26.58 26.57 27.05 26.57 27.53C26.57 28.46 25.88 29.17 24.99 29.16C24.12 29.15 23.45 28.45 23.44 27.53C23.44 27.05 23.44 26.58 23.44 26.06L23.45 26.07ZM37.51 46.85C37.51 46.72 37.51 46.6 37.51 46.48C37.51 45.04 37.51 43.6 37.51 42.15C37.51 41.05 37.51 39.96 37.51 38.86C37.51 38.6 37.43 38.53 37.18 38.53C36.01 38.54 34.84 38.54 33.67 38.53C33.41 38.53 33.33 38.62 33.34 38.87C33.36 39.26 33.35 39.65 33.34 40.04C33.32 40.97 32.65 41.66 31.78 41.65C30.92 41.65 30.23 40.94 30.22 40.03C30.22 39.64 30.21 39.25 30.22 38.86C30.23 38.61 30.14 38.54 29.9 38.55C28.89 38.56 27.88 38.55 26.87 38.55C26.78 38.55 26.68 38.57 26.59 38.58V46.84H37.5L37.51 46.85ZM23.43 46.85V38.61C23.43 38.61 23.36 38.57 23.33 38.57C22.22 38.57 21.12 38.56 20.01 38.57C19.94 38.57 19.82 38.73 19.82 38.82C19.8 39.25 19.82 39.69 19.8 40.12C19.76 41 19.06 41.67 18.23 41.66C17.38 41.66 16.71 40.98 16.68 40.1C16.67 39.71 16.66 39.32 16.68 38.93C16.7 38.64 16.61 38.53 16.3 38.54C15.16 38.56 14.02 38.56 12.88 38.54C12.59 38.54 12.49 38.61 12.5 38.92C12.51 41.45 12.5 43.97 12.5 46.5C12.5 46.61 12.51 46.73 12.52 46.86H23.42L23.43 46.85Z" fill="black"/>
<path d="M38.64 0C39.1 0 39.56 0 40.02 0C40.11 0.02 40.2 0.03 40.3 0.05C40.77 0.12 41.24 0.16 41.7 0.27C43.67 0.72 45.39 1.65 46.83 3.08C48.44 4.67 49.45 6.57 49.85 8.8C49.92 9.2 49.97 9.61 50.03 10.02V11.23C50.02 11.28 49.99 11.33 49.99 11.38C49.86 12.48 49.51 13.52 49.1 14.54C48.4 16.27 47.52 17.91 46.57 19.51C44.65 22.73 42.48 25.78 40.17 28.73C39.7 29.34 38.99 29.33 38.51 28.71C36.99 26.78 35.55 24.79 34.18 22.75C32.75 20.61 31.39 18.42 30.27 16.09C29.69 14.88 29.17 13.64 28.86 12.33C28.77 11.96 28.72 11.59 28.65 11.22C28.65 10.8 28.65 10.38 28.65 9.96C28.67 9.86 28.69 9.76 28.7 9.66C28.79 8.71 29 7.78 29.34 6.89C30.14 4.81 31.46 3.13 33.29 1.87C34.54 1 35.92 0.43 37.43 0.17C37.82 0.11 38.23 0.06 38.64 0Z" fill="black"/>
</g>
<defs>
<clipPath id="clip0_2018_214">
<rect width="50.01" height="50" fill="white"/>
</clipPath>
</defs>
</svg>
