<svg width="131" height="68" viewBox="0 0 131 68" fill="none" xmlns="http://www.w3.org/2000/svg">
<path fill-rule="evenodd" clip-rule="evenodd" d="M77.36 48.94C78.19 49.02 78.97 48.66 79.91 48.7C80.24 47.78 81.76 48.44 82.17 48.98C83.02 50.1 82.8 52.8 81.4 52.97C79.79 53.16 79.65 51.11 79.93 49.64C78.88 49.52 78.05 49.84 77.12 49.92C76.79 50.89 76.57 52.87 77.62 53.1C78.28 53.24 78.69 52.68 79.11 52.34C79.51 52.87 78.68 53.87 78.09 53.92C76.45 54.04 75.89 51.67 76.41 50.05C75.93 49.91 75.12 50.08 74.86 49.74C74.74 49.5 74.89 49.2 75.01 49.08C75.48 49.24 75.99 49.24 76.57 49.21C77.32 47.08 77.95 44.82 78.74 42.72C79.58 42.84 78.95 43.75 78.74 44.37C78.56 44.91 78.48 45.31 78.35 45.78C78.15 46.46 77.87 47 77.72 47.55C77.56 48.04 77.46 48.54 77.36 48.94ZM80.84 52.1C82.65 52.38 82.51 48.23 80.43 49.11C80.93 49.78 79.98 51.97 80.84 52.1Z" fill="black"/>
<path fill-rule="evenodd" clip-rule="evenodd" d="M57.76 42.4099C57.66 44.7499 57.17 47.1 56.56 49.19C56.78 49.15 56.89 48.9 57.06 48.76C57.15 48.69 57.28 48.6599 57.38 48.5899C57.63 48.3999 57.76 48.27 58.06 48.12C58.44 47.92 59.06 47.6099 59.76 47.5899C61.04 47.5499 62.16 48.59 62.01 49.92C61.93 50.61 61.12 51.43 60.63 51.8C59.98 52.29 59.08 52.72 58.19 53.07C57.32 53.41 56.25 53.78 55.2 53.52C55.06 53.37 55.14 53.11 55.17 52.9C57.31 53.02 60.08 51.63 61.07 50.38C61.81 49.44 61.22 48.2399 60.06 48.2199C57.8 48.1699 56.16 50.44 55.76 52.51C54.54 52.68 55.45 51.2199 55.59 50.7199C56.3 48.1699 57.14 45.44 57.28 42.39C57.33 42.17 57.67 42.2899 57.76 42.4099Z" fill="black"/>
<path fill-rule="evenodd" clip-rule="evenodd" d="M45.3901 45.38C45.2801 45.57 45.0201 45.33 44.9001 45.41C44.3701 47.06 44.3101 49.43 43.7201 51.35C43.5301 51.97 43.2301 52.96 42.7401 52.97C41.4701 53.01 41.1701 51.07 41.2701 49.64C40.9901 50.52 40.5501 52.3 39.7701 52.54C38.9701 52.78 38.6301 51.81 38.5201 51.17C38.3901 50.5 38.4601 49.68 38.4501 48.9C38.4301 47.84 38.2901 46.94 38.5701 46.1C38.7701 46.12 38.8501 46.27 39.0501 46.29C39.3301 48 38.9501 50.11 39.3501 51.64C39.7601 51.49 39.9601 50.95 40.1401 50.5C40.6001 49.36 40.8401 47.71 41.0101 46.2C41.3501 46.29 41.5901 46.46 41.8001 46.67C42.1701 48.42 41.7401 50.66 42.2801 52.16C42.5001 52.06 42.6801 51.85 42.7801 51.64C43.7101 49.86 43.5601 46.61 44.3001 44.55C44.8301 44.67 45.1801 44.95 45.3901 45.38Z" fill="black"/>
<path fill-rule="evenodd" clip-rule="evenodd" d="M46.2 51.68C46.98 51.96 47.82 51.3 48.36 50.85C48.95 50.36 49.32 49.6 49.83 49.24C50.04 49.26 50.07 49.44 50.22 49.52C50.22 49.83 50.2 50.11 50.02 50.41C49.54 51.19 48.16 52.4 47.33 52.61C46.62 52.79 46.04 52.35 45.66 51.94C45.12 52.22 44.52 51.97 44.56 51.33C44.85 51.27 45.11 51.18 45.37 51.08C45.43 50.29 45.57 49.41 45.92 48.74C46.17 48.25 46.8 47.31 47.29 47.31C47.66 47.3 48.13 47.79 48.25 48.09C48.92 49.75 47.08 51.1 46.2 51.68ZM47.59 48.1501C46.92 48.6901 46.53 49.53 46.24 50.47C47.04 50.03 47.59 49.33 47.73 48.19C47.66 48.19 47.66 48.1401 47.59 48.1501Z" fill="black"/>
<path fill-rule="evenodd" clip-rule="evenodd" d="M89.9201 52.08C90.1701 52.69 90.8901 52.83 91.6401 52.84C92.2601 52.84 92.9301 52.52 93.3301 52.88C93.0801 53.46 91.7101 53.61 90.9501 53.53C90.1901 53.44 89.5701 52.96 89.3801 52.42C88.3001 53.08 87.3001 53.82 86.2501 54.52C85.7201 56.09 85.5201 57.8 85.0001 59.56C84.8501 60.06 84.6501 60.8 84.2101 60.83C83.8401 60.86 83.3801 60.38 83.1601 60.13C82.5901 59.48 81.6201 57.76 82.0901 56.58C82.6901 55.08 84.6901 54.78 85.7701 53.87C85.8901 53 86.1701 52.3 86.3201 51.48C85.7901 51.58 85.2501 52.03 84.6501 52.15C83.8201 52.31 82.9901 51.74 83.4801 50.69C83.8101 50 85.1701 48.82 85.9801 48.71C86.8801 48.58 87.0701 49.03 87.6601 49.02C88.1301 49.5 87.8101 49.93 87.4901 50.48C87.0301 51.27 86.7801 52.38 86.5301 53.3C87.4401 52.84 88.4601 52.1 89.3401 51.46C89.6301 50.6 90.7001 48.79 91.7301 48.67C92.1901 48.62 92.5801 48.9 92.6001 49.27C92.6501 49.92 91.8301 50.57 91.4401 50.89C90.9101 51.38 90.3501 51.61 89.9201 52.08ZM84.0601 51.39C85.3201 51.25 86.7701 50.69 87.0501 49.55C85.6801 49.11 84.5301 50.44 84.0601 51.39ZM90.9901 50.28C91.1401 50.02 91.7301 49.75 91.6301 49.54C91.4501 49.78 90.9701 49.97 90.9901 50.28ZM85.4401 54.9C84.5901 55.63 82.6501 56.05 82.4801 57.36C82.3401 58.47 83.2201 59.78 84.0101 60.12C84.8801 58.82 85.0401 56.54 85.4401 54.9Z" fill="black"/>
<path fill-rule="evenodd" clip-rule="evenodd" d="M63.79 51.74C64.85 51.55 65.81 50.37 66.12 49.4C66.22 49.1 66.15 48.75 66.45 48.56C67.31 49.03 66.58 50.31 66.38 51.41C66.33 51.68 66.3101 52 66.3601 52.21C66.4301 52.52 66.69 52.5 66.66 52.89C66.02 53.4 65.52 52.16 65.76 51.4C65.48 51.69 65.1401 52.01 64.6701 52.31C64.3701 52.5 63.65 52.88 63.29 52.32C62.89 51.69 63.34 50.35 63.28 49.33C63.27 49.09 63.16 48.8 63.21 48.66C63.37 48.19 63.8601 48.55 63.9201 48.95C64.0501 49.91 63.63 50.82 63.79 51.74Z" fill="black"/>
<path fill-rule="evenodd" clip-rule="evenodd" d="M65.5101 67.64C65.1801 67.56 65.1501 67.16 65.1301 66.87C65.0201 65.37 65.4701 63.97 65.8201 62.7C66.8301 59.02 68.5 55.51 69.62 52.07C69.04 52.23 68.21 52.15 67.9 51.53C67.53 50.78 67.94 49.71 68.28 49.09C69.11 49.45 68.2001 50.51 68.5401 51.24C69.4201 51.48 70.0301 50.76 70.3501 50.13C70.5801 49.67 70.6801 49.02 71.0101 48.63C71.8801 49.16 71.09 50.21 70.72 51.16C70.01 52.99 69.3 54.84 68.62 56.63C67.7 59.03 66.62 61.78 66.02 64.18C65.68 65.45 65.6701 66.51 65.5101 67.64Z" fill="black"/>
<path fill-rule="evenodd" clip-rule="evenodd" d="M105.17 51.37C104.76 52.28 102.32 53.38 101.73 51.86C101.05 51.79 100.79 51.33 100.55 50.85C99.82 51.3 99.35 52.02 98.55 52.4C97.31 51.8 98.5 49.44 98.79 48.44C98.14 49.31 97.21 50.28 96.01 50.73C95.65 51.67 95.53 52.88 95.08 53.73C94.62 53.76 94.56 53.41 94.61 52.96C94.94 52.43 95.05 51.65 95.24 50.97C94.26 51.16 92.6 50.62 93.27 49.54C93.59 49.63 93.64 50.04 94.01 50.14C94.58 50.29 95.17 50.04 95.62 49.92C96.18 48.49 96.76 46.91 97.21 45.28C97.35 44.78 97.41 44.19 97.78 43.83C98.14 43.95 98.27 44.31 98.21 44.64C98.19 44.77 98.04 44.86 97.98 44.99C97.68 45.6 97.55 46.52 97.3 47.33C97.05 48.14 96.75 48.89 96.48 49.49C98.56 48.5 99.31 46.1 100.15 43.8C100.79 43.95 100.56 44.49 100.47 45.06C100.13 47.21 99.02 49.25 98.61 51.34C99.01 51.23 99.26 50.91 99.61 50.61C99.85 50.4 100.29 49.87 100.61 49.92C101.14 50 100.92 50.99 101.65 50.97C102.15 50.11 102.59 48.9 103.37 48.34C103.78 48.04 104.37 48.13 104.47 48.77C104.59 49.5 104.02 50.65 103.65 51.07C103.38 51.37 102.97 51.54 102.61 51.75C103.87 52.1 104.54 51.09 105.48 50.8C105.34 51.05 105.17 51.26 105.02 51.5C105.1 51.47 105.15 51.43 105.17 51.37ZM102.56 50.85C103.3 50.53 103.96 49.88 104.03 49.02C103.27 49.31 102.84 50.2 102.56 50.85Z" fill="black"/>
<path fill-rule="evenodd" clip-rule="evenodd" d="M113.45 48.42C113.04 48.28 112.33 48.16 111.72 48.24C109.36 48.55 107.54 49.95 106.85 52.03C106.77 52.28 106.85 52.58 106.56 52.78C105.81 52.61 106.12 51.49 106.35 50.5C106.49 49.91 106.69 49.3 106.75 48.77C106.81 48.29 106.71 47.92 107.09 47.67C107.66 48.26 107.11 49.5 107.02 50.25C108.02 48.81 109.61 47.34 112.31 47.36C113.11 47.37 113.67 47.55 113.45 48.42Z" fill="black"/>
<path d="M10.82 37.08C9.45001 38.42 8.02 38.95 6.27 38.95C2.85 38.95 0 36.89 0 32.7C0 28.51 2.85 26.45 6.27 26.45C7.95 26.45 9.24001 26.93 10.54 28.2L8.7 30.14C8 29.52 7.14 29.21 6.33 29.21C4.37 29.21 2.93001 30.65 2.93001 32.71C2.93001 34.96 4.46 36.16 6.28 36.16C7.22 36.16 8.14999 35.9 8.87 35.18L10.82 37.08Z" fill="#020203"/>
<path d="M24.08 32.7C24.08 36.1 21.76 38.86 17.92 38.86C14.09 38.86 11.79 36.1 11.79 32.7C11.79 29.32 14.14 26.54 17.9 26.54C21.66 26.54 24.08 29.32 24.08 32.7ZM14.72 32.7C14.72 34.5 15.8 36.17 17.93 36.17C20.06 36.17 21.14 34.49 21.14 32.7C21.14 30.93 19.89 29.2 17.93 29.2C15.82 29.2 14.72 30.92 14.72 32.7Z" fill="#020203"/>
<path d="M26.09 43.52V26.78H28.82L29.01 28.41C29.92 27.09 31.5 26.52 32.84 26.52C36.48 26.52 38.9 29.23 38.9 32.7C38.9 36.15 36.72 38.88 32.94 38.88C31.69 38.88 29.85 38.5 29.01 37.2V43.52H26.09ZM35.99 32.7C35.99 30.86 34.75 29.35 32.64 29.35C30.53 29.35 29.29 30.86 29.29 32.7C29.29 34.55 30.65 36.05 32.64 36.05C34.62 36.05 35.99 34.54 35.99 32.7Z" fill="#020203"/>
<path d="M43.55 33.73C43.74 35.19 45.01 36.25 47.07 36.25C48.15 36.25 49.56 35.84 50.23 35.15L52.1 36.99C50.85 38.28 48.82 38.9 47.02 38.9C42.95 38.9 40.53 36.39 40.53 32.6C40.53 29.01 42.97 26.42 46.81 26.42C50.76 26.42 53.23 28.86 52.77 33.72H43.55V33.73ZM49.97 31.31C49.78 29.78 48.58 29.01 46.9 29.01C45.32 29.01 44.03 29.78 43.59 31.31H49.97Z" fill="#020203"/>
<path d="M57.73 26.78L57.95 28.15C58.86 26.69 60.08 26.47 61.28 26.47C62.5 26.47 63.67 26.95 64.32 27.59L63 30.13C62.4 29.63 61.85 29.36 60.89 29.36C59.36 29.36 57.94 30.17 57.94 32.35V38.58H55.02V26.77H57.73V26.78Z" fill="#020203"/>
<path d="M74.78 26.78H77.58V38.59H74.82L74.68 36.87C74.01 38.26 72.17 38.93 70.85 38.95C67.35 38.97 64.77 36.82 64.77 32.68C64.77 28.61 67.48 26.48 70.93 26.5C72.51 26.5 74.02 27.24 74.69 28.42L74.78 26.78ZM67.69 32.67C67.69 34.92 69.25 36.26 71.19 36.26C75.79 36.26 75.79 29.1 71.19 29.1C69.25 29.1 67.69 30.42 67.69 32.67Z" fill="#020203"/>
<path d="M87.9101 38.59V32.27C87.9101 30.71 87.1001 29.3 85.4901 29.3C83.9101 29.3 82.9801 30.71 82.9801 32.27V38.59H80.0601V26.76H82.7701L82.9901 28.2C83.6101 27 84.9801 26.57 86.1001 26.57C87.5101 26.57 88.9301 27.14 89.6001 28.77C90.6501 27.09 92.02 26.61 93.55 26.61C96.9 26.61 98.5601 28.67 98.5601 32.21V38.58H95.6401V32.21C95.6401 30.65 94.9901 29.34 93.4101 29.34C91.8301 29.34 90.8501 30.7 90.8501 32.26V38.58H87.9101V38.59Z" fill="#020203"/>
<path d="M110.88 26.78H113.68V38.59H110.93L110.79 36.87C110.12 38.26 108.27 38.93 106.96 38.95C103.46 38.97 100.87 36.82 100.87 32.68C100.87 28.61 103.58 26.48 107.03 26.5C108.61 26.5 110.12 27.24 110.79 28.42L110.88 26.78ZM103.78 32.67C103.78 34.92 105.34 36.26 107.28 36.26C111.88 36.26 111.88 29.1 107.28 29.1C105.34 29.1 103.78 30.42 103.78 32.67Z" fill="#020203"/>
<path d="M119.02 0C112.89 0 107.93 4.96997 107.93 11.09C107.93 17.22 112.89 22.18 119.02 22.18C125.15 22.18 130.11 17.21 130.11 11.09C130.11 4.96997 125.14 0 119.02 0Z" fill="black"/>
<path d="M127.32 9.90002C126.61 9.21002 125.61 8.83002 124.51 8.83002C122.05 8.83002 120.28 11.3 119.12 12.94C118.88 13.27 118.66 13.58 118.47 13.83C117.68 14.83 116.53 15.38 115.26 15.38C112.88 15.38 111.08 13.42 111.08 10.83C111.08 8.43002 112.73 6.47999 114.92 6.29999H114.95C115.06 6.28999 115.17 6.28998 115.29 6.28998H115.33C116.63 6.29998 117.66 6.62001 118.48 7.26001L118.51 7.27997L118.53 7.25C118.71 6.96 118.91 6.63999 119.13 6.29999L119.14 6.27997L119.12 6.26001C118.11 5.44001 116.83 5 115.41 5C115.39 5 115.37 5 115.35 5C115.34 5 115.32 5 115.31 5H115.3C115.29 5 115.28 5 115.27 5C112.06 5 109.63 7.50001 109.63 10.82C109.63 14.14 112.05 16.65 115.27 16.65C116.64 16.65 117.79 16.27 118.68 15.52V15.53L118.71 15.5C118.9 15.33 119.12 15.1 119.37 14.8C119.38 14.79 119.39 14.77 119.41 14.76C119.43 14.74 119.45 14.72 119.47 14.7L119.49 14.68H119.48C119.75 14.34 120.03 13.96 120.32 13.55C121.52 11.9 122.88 10.03 124.53 10.01C126.03 10.01 127.09 11.11 127.09 12.69C127.09 14.27 126.04 15.38 124.53 15.38C123.28 15.38 122.3 14.64 122.04 13.5C121.92 12.97 121.98 12.69 121.98 12.69L122.01 12.55L121.02 13.94L121.01 13.95V13.96C121.29 15.69 122.44 16.54 124.52 16.56H124.57C125.66 16.56 126.64 16.18 127.35 15.48C128.06 14.78 128.45 13.79 128.45 12.69C128.43 11.59 128.03 10.6 127.32 9.90002Z" fill="white"/>
</svg>
