<svg width="154" height="80" viewBox="0 0 154 80" fill="none" xmlns="http://www.w3.org/2000/svg">
<path fill-rule="evenodd" clip-rule="evenodd" d="M91.5696 57.8799C92.5497 57.9734 93.4807 57.5501 94.584 57.5895C94.978 56.4968 96.7758 57.2794 97.2634 57.9242C98.2682 59.2482 98.0121 62.4427 96.3473 62.6396C94.4411 62.866 94.2786 60.4443 94.6086 58.697C93.3624 58.5493 92.3773 58.9283 91.279 59.0267C90.8849 60.1687 90.6288 62.5215 91.8651 62.7824C92.6482 62.9497 93.1309 62.2901 93.6284 61.8816C94.1013 62.5018 93.126 63.693 92.4217 63.7422C90.486 63.8849 89.821 61.0842 90.4318 59.1596C89.8604 58.9972 88.9049 59.199 88.5995 58.7954C88.4517 58.5148 88.634 58.1604 88.7768 58.0128C89.3334 58.1998 89.9294 58.1998 90.619 58.1654C91.5105 55.6403 92.2542 52.9675 93.1901 50.4917C94.1899 50.6295 93.4363 51.7124 93.1901 52.4409C92.9783 53.0758 92.8896 53.5533 92.7221 54.1144C92.4857 54.9167 92.1606 55.5615 91.9833 56.2014C91.8109 56.8118 91.6927 57.4024 91.5696 57.8799ZM95.6873 61.6207C97.8348 61.9554 97.6624 57.048 95.2046 58.0768C95.8006 58.8742 94.6726 61.4632 95.6873 61.6207Z" fill="#18988B"/>
<path fill-rule="evenodd" clip-rule="evenodd" d="M68.3704 50.1569C68.2522 52.9182 67.671 55.6992 66.947 58.18C67.208 58.1357 67.3361 57.8355 67.543 57.6681C67.6513 57.5795 67.804 57.5549 67.9173 57.4663C68.2079 57.2399 68.3655 57.0922 68.7251 56.9101C69.1782 56.6738 69.9023 56.3047 70.7445 56.2801C72.2616 56.2358 73.5915 57.4614 73.4092 59.0365C73.3206 59.8486 72.3601 60.8183 71.7739 61.2564C71.0006 61.8323 69.9417 62.3491 68.8876 62.7576C67.8582 63.1613 66.5874 63.5993 65.3462 63.2941C65.1837 63.1219 65.2723 62.8118 65.3117 62.5558C67.8385 62.6986 71.1238 61.0595 72.296 59.5779C73.1728 58.4704 72.4684 57.0479 71.0992 57.0184C68.4246 56.9593 66.484 59.6468 66.0111 62.0981C64.5631 62.3048 65.6417 60.5771 65.8043 59.9864C66.6416 56.9741 67.6415 53.7402 67.804 50.1372C67.868 49.8763 68.267 50.0141 68.3704 50.1569Z" fill="#18988B"/>
<path fill-rule="evenodd" clip-rule="evenodd" d="M53.732 53.6665C53.599 53.8929 53.2936 53.6025 53.1508 53.7059C52.5203 55.66 52.4514 58.4558 51.752 60.7298C51.5254 61.4632 51.1708 62.6298 50.5945 62.6494C49.0922 62.7036 48.7376 60.4 48.8558 58.7068C48.5208 59.7454 48.0037 61.857 47.0777 62.1375C46.132 62.423 45.733 61.2811 45.5902 60.5181C45.4424 59.7207 45.5212 58.756 45.5015 57.8306C45.4818 56.5755 45.3144 55.5074 45.6444 54.518C45.8857 54.5475 45.9744 54.7149 46.2207 54.7444C46.5507 56.7625 46.1024 59.2581 46.5802 61.0743C47.0629 60.8922 47.2944 60.2622 47.5111 59.7306C48.0579 58.377 48.3337 56.4327 48.5405 54.646C48.9395 54.7494 49.2301 54.9512 49.4764 55.1973C49.9197 57.2646 49.4074 59.9226 50.0428 61.6896C50.3039 61.5715 50.5107 61.3155 50.6388 61.0743C51.7372 58.9726 51.5599 55.1234 52.4415 52.6919C53.0671 52.8248 53.4907 53.1595 53.732 53.6665Z" fill="#18988B"/>
<path fill-rule="evenodd" clip-rule="evenodd" d="M54.6925 61.1187C55.6185 61.4534 56.6085 60.6658 57.2488 60.1342C57.9532 59.5534 58.3866 58.6625 58.9875 58.2294C59.2338 58.249 59.2781 58.4706 59.4505 58.5591C59.4555 58.9283 59.4308 59.2581 59.2141 59.6076C58.6378 60.5231 57.0124 61.9604 56.0322 62.2065C55.1949 62.4231 54.5053 61.9013 54.0522 61.4189C53.4217 61.7536 52.7076 61.4485 52.7568 60.7003C53.1016 60.6265 53.4119 60.5231 53.7123 60.4099C53.7862 59.4796 53.9537 58.4312 54.3625 57.6387C54.658 57.0628 55.4067 55.9504 55.9928 55.9406C56.4361 55.9307 56.9878 56.5115 57.1257 56.8659C57.9089 58.8348 55.7318 60.4296 54.6925 61.1187ZM56.3327 56.9496C55.5397 57.5944 55.0767 58.5838 54.7319 59.6962C55.6776 59.1744 56.3278 58.3475 56.4903 57.0037C56.4214 56.9988 56.4214 56.9348 56.3327 56.9496Z" fill="#18988B"/>
<path fill-rule="evenodd" clip-rule="evenodd" d="M106.44 61.5912C106.73 62.3196 107.587 62.4821 108.474 62.487C109.208 62.4919 109.996 62.108 110.474 62.5411C110.178 63.2253 108.558 63.4074 107.661 63.309C106.765 63.2106 106.026 62.6347 105.799 61.9948C104.524 62.7774 103.337 63.6536 102.095 64.4805C101.47 66.3361 101.238 68.3641 100.618 70.4461C100.44 71.0417 100.209 71.908 99.6818 71.9474C99.2484 71.9819 98.7017 71.4207 98.4406 71.1254C97.7609 70.3575 96.6182 68.3296 97.1797 66.9317C97.8939 65.1597 100.253 64.8004 101.534 63.7274C101.672 62.6987 102.002 61.8717 102.189 60.902C101.558 61.0202 100.918 61.5567 100.219 61.6945C99.2336 61.8865 98.2584 61.2122 98.8396 59.9718C99.2287 59.1498 100.844 57.7617 101.805 57.6288C102.874 57.4762 103.095 58.0127 103.8 57.998C104.356 58.5739 103.977 59.0759 103.593 59.7306C103.046 60.6609 102.745 61.9702 102.45 63.0727C103.524 62.5264 104.73 61.6552 105.775 60.8971C106.114 59.8782 107.38 57.7371 108.602 57.6042C109.149 57.5402 109.602 57.8798 109.636 58.313C109.7 59.0858 108.725 59.8487 108.267 60.2277C107.607 60.7642 106.952 61.035 106.44 61.5912ZM99.5045 60.7741C100.992 60.6067 102.711 59.9422 103.041 58.6034C101.421 58.0866 100.061 59.6518 99.5045 60.7741ZM107.705 59.4648C107.888 59.1596 108.577 58.8397 108.469 58.5886C108.247 58.879 107.686 59.0956 107.705 59.4648ZM101.13 64.9235C100.125 65.7848 97.8249 66.2869 97.6279 67.8325C97.4604 69.1467 98.5046 70.7021 99.4405 71.0909C100.47 69.5651 100.662 66.8677 101.13 64.9235Z" fill="#18988B"/>
<path fill-rule="evenodd" clip-rule="evenodd" d="M75.5075 61.1924C76.7585 60.9709 77.8963 59.578 78.2707 58.4213C78.3889 58.0619 78.3101 57.6534 78.6647 57.427C79.6793 57.9881 78.8174 59.5041 78.576 60.7987C78.5169 61.1186 78.4923 61.4976 78.5514 61.7437C78.6351 62.1129 78.9356 62.0883 78.9011 62.546C78.1426 63.1465 77.5466 61.6797 77.8372 60.779C77.5072 61.1284 77.1082 61.5025 76.5467 61.852C76.1921 62.0735 75.3351 62.5214 74.9115 61.8618C74.4337 61.1186 74.9657 59.5287 74.8967 58.3326C74.8819 58.0472 74.7588 57.7075 74.813 57.5402C74.9952 56.9791 75.5764 57.4122 75.6454 57.8798C75.8227 59.0316 75.3252 60.0997 75.5075 61.1924Z" fill="#18988B"/>
<path fill-rule="evenodd" clip-rule="evenodd" d="M77.5419 80C77.1478 79.9016 77.1183 79.429 77.0937 79.0943C76.9607 77.3224 77.4975 75.6685 77.9113 74.1623C79.1131 69.8062 81.0882 65.6568 82.4082 61.5862C81.7187 61.7781 80.7336 61.6846 80.3691 60.9512C79.9258 60.0652 80.4134 58.8002 80.8173 58.0668C81.7975 58.4901 80.7139 59.7453 81.1178 60.6067C82.157 60.8922 82.886 60.0406 83.2603 59.2924C83.5362 58.7461 83.6544 57.9782 84.0435 57.5254C85.0729 58.1554 84.1371 59.3909 83.6987 60.5181C82.8565 62.6838 82.0142 64.8791 81.2113 66.9858C80.1277 69.8259 78.8471 73.0745 78.128 75.9097C77.7438 77.406 77.734 78.6612 77.5419 80Z" fill="#18988B"/>
<path fill-rule="evenodd" clip-rule="evenodd" d="M124.487 60.7493C124.004 61.8223 121.108 63.1267 120.413 61.3252C119.61 61.2464 119.3 60.7001 119.024 60.1291C118.152 60.6558 117.606 61.5171 116.655 61.9601C115.182 61.2464 116.591 58.4605 116.936 57.2792C116.167 58.3079 115.064 59.4548 113.651 59.9863C113.222 61.1037 113.084 62.5262 112.552 63.5402C112.01 63.5746 111.941 63.1611 111.996 62.6295C112.385 61.9995 112.513 61.084 112.744 60.2817C111.592 60.5081 109.617 59.8633 110.415 58.5885C110.789 58.6967 110.848 59.1791 111.291 59.2972C111.961 59.4794 112.656 59.1791 113.192 59.0314C113.857 57.3382 114.537 55.4678 115.079 53.5481C115.241 52.9575 115.31 52.2635 115.754 51.8303C116.177 51.9731 116.33 52.4013 116.256 52.7951C116.227 52.9526 116.059 53.0559 115.98 53.2085C115.621 53.9272 115.468 55.0199 115.173 55.9797C114.877 56.9395 114.522 57.8255 114.207 58.5343C116.67 57.3579 117.561 54.5277 118.551 51.8008C119.305 51.9731 119.039 52.6179 118.936 53.2873C118.532 55.8271 117.217 58.2439 116.734 60.7099C117.202 60.5819 117.507 60.198 117.921 59.8436C118.207 59.5975 118.724 58.9724 119.098 59.0314C119.724 59.125 119.463 60.2964 120.329 60.2768C120.916 59.2677 121.448 57.8255 122.364 57.1709C122.856 56.8165 123.546 56.9248 123.669 57.6778C123.812 58.5442 123.137 59.8977 122.704 60.3949C122.388 60.7542 121.896 60.956 121.467 61.2071C122.965 61.6254 123.753 60.4195 124.871 60.0848C124.708 60.3801 124.496 60.6312 124.324 60.9117C124.403 60.8773 124.457 60.8231 124.487 60.7493ZM121.393 60.1439C122.265 59.7599 123.043 59.0019 123.137 57.9781C122.236 58.3226 121.728 59.376 121.393 60.1439Z" fill="#18988B"/>
<path fill-rule="evenodd" clip-rule="evenodd" d="M134.278 57.2694C133.796 57.0971 132.953 56.9593 132.229 57.0577C129.442 57.4269 127.284 59.0856 126.471 61.5418C126.373 61.8421 126.471 62.1915 126.132 62.4278C125.245 62.226 125.614 60.9019 125.885 59.7354C126.048 59.0364 126.284 58.3129 126.358 57.6927C126.427 57.1217 126.314 56.6935 126.762 56.3883C127.432 57.0872 126.787 58.554 126.683 59.44C127.865 57.7419 129.752 55.9945 132.939 56.0241C133.884 56.029 134.549 56.2357 134.278 57.2694Z" fill="#18988B"/>
<path d="M12.8161 43.8564C11.2005 45.4414 9.49632 46.0615 7.42761 46.0615C3.37395 46.0615 0 43.63 0 38.6734C0 33.7118 3.37395 31.2803 7.42761 31.2803C9.41258 31.2803 10.9444 31.8463 12.4762 33.3476L10.2942 35.6413C9.47169 34.903 8.45212 34.5388 7.48673 34.5388C5.1619 34.5388 3.46261 36.2369 3.46261 38.6734C3.46261 41.3363 5.27519 42.7538 7.43255 42.7538C8.54078 42.7538 9.64408 42.4438 10.4913 41.5922L12.8161 43.8564Z" fill="#020203"/>
<path d="M28.5186 38.6686C28.5186 42.69 25.7702 45.9485 21.2338 45.9485C16.6974 45.9485 13.9736 42.69 13.9736 38.6686C13.9736 34.6767 16.7516 31.3887 21.2042 31.3887C25.6569 31.3887 28.5186 34.6767 28.5186 38.6686ZM17.4362 38.6686C17.4362 40.7949 18.7119 42.7736 21.2338 42.7736C23.7556 42.7736 25.0313 40.79 25.0313 38.6686C25.0313 36.5717 23.5586 34.5339 21.2338 34.5339C18.7366 34.5339 17.4362 36.5717 17.4362 38.6686Z" fill="#020203"/>
<path d="M30.8975 51.476V31.6741H34.1286L34.3551 33.6036C35.4289 32.0433 37.3006 31.364 38.8915 31.364C43.2013 31.364 46.063 34.5634 46.063 38.6734C46.063 42.7539 43.4821 45.9829 39.0048 45.9829C37.5321 45.9829 35.3501 45.53 34.3551 43.9992V51.4809H30.8975V51.476ZM42.6053 38.6685C42.6053 36.488 41.1326 34.7013 38.6354 34.7013C36.1431 34.7013 34.6654 36.4831 34.6654 38.6685C34.6654 40.849 36.281 42.6358 38.6354 42.6358C40.9898 42.6358 42.6053 40.854 42.6053 38.6685Z" fill="#020203"/>
<path d="M51.56 39.8892C51.7866 41.6169 53.2888 42.8622 55.7269 42.8622C57.0026 42.8622 58.6724 42.3798 59.4703 41.5578L61.6818 43.7383C60.2042 45.2691 57.7956 46.0025 55.6728 46.0025C50.8556 46.0025 47.989 43.0344 47.989 38.5553C47.989 34.3025 50.8803 31.2458 55.4166 31.2458C60.0958 31.2458 63.0117 34.1352 62.4748 39.8843H51.56V39.8892ZM59.16 37.0245C58.9334 35.2131 57.5149 34.3025 55.5299 34.3025C53.6632 34.3025 52.1264 35.2082 51.6191 37.0245H59.16Z" fill="#020203"/>
<path d="M68.341 31.6741L68.5971 33.2886C69.6758 31.5609 71.119 31.3049 72.5375 31.3049C73.9807 31.3049 75.3697 31.871 76.138 32.6339L74.5767 35.6364C73.8674 35.0409 73.2172 34.7308 72.0844 34.7308C70.2718 34.7308 68.5971 35.6906 68.5971 38.2698V45.6383H65.1345V31.6692H68.341V31.6741Z" fill="#020203"/>
<path d="M88.5206 31.6742H91.8354V45.6433H88.5748L88.4073 43.6056C87.6143 45.2496 85.4323 46.042 83.8709 46.0667C79.7335 46.0962 76.6748 43.5465 76.6748 38.6489C76.6748 33.8351 79.8764 31.3149 83.9596 31.3395C85.8313 31.3395 87.6143 32.2157 88.4122 33.6087L88.5206 31.6742ZM80.1276 38.6391C80.1276 41.302 81.9697 42.8919 84.265 42.8919C89.7076 42.8919 89.7076 34.4208 84.265 34.4208C81.9697 34.4208 80.1276 35.9762 80.1276 38.6391Z" fill="#020203"/>
<path d="M104.051 45.6384V38.1616C104.051 36.3207 103.085 34.6472 101.189 34.6472C99.3173 34.6472 98.214 36.3207 98.214 38.1616V45.6384H94.7563V31.6446H97.9579L98.214 33.3428C98.9479 31.9252 100.563 31.4182 101.898 31.4182C103.573 31.4182 105.243 32.0975 106.036 34.027C107.282 32.0433 108.897 31.4773 110.715 31.4773C114.68 31.4773 116.64 33.9138 116.64 38.1074V45.6433H113.183V38.1074C113.183 36.2666 112.414 34.7111 110.547 34.7111C108.676 34.7111 107.513 36.3256 107.513 38.1665V45.6433H104.051V45.6384Z" fill="#020203"/>
<path d="M131.234 31.6742H134.549V45.6433H131.289L131.121 43.6056C130.328 45.2496 128.146 46.042 126.585 46.0667C122.447 46.0962 119.384 43.5465 119.384 38.6489C119.384 33.8351 122.585 31.3149 126.674 31.3395C128.545 31.3395 130.328 32.2157 131.126 33.6087L131.234 31.6742ZM122.841 38.6391C122.841 41.302 124.684 42.8919 126.979 42.8919C132.422 42.8919 132.422 34.4208 126.979 34.4208C124.689 34.4208 122.841 35.9762 122.841 38.6391Z" fill="#020203"/>
<path d="M140.874 0C133.623 0 127.747 5.87214 127.747 13.1176C127.747 20.363 133.623 26.2401 140.874 26.2401C148.124 26.2401 154 20.3679 154 13.1176C154 5.87214 148.124 0 140.874 0Z" fill="#18988B"/>
<path d="M150.695 11.7146C149.853 10.8976 148.671 10.4447 147.37 10.4447C144.459 10.4447 142.371 13.3685 140.987 15.3029C140.706 15.6918 140.445 16.0609 140.214 16.3513C139.273 17.5376 137.923 18.1873 136.411 18.1873C133.589 18.1873 131.466 15.869 131.466 12.7975C131.466 9.95744 133.416 7.65386 136.007 7.43728H136.037C136.165 7.43236 136.298 7.42252 136.441 7.42252H136.49C138.027 7.43236 139.248 7.80645 140.223 8.57431L140.253 8.59891L140.273 8.56446C140.489 8.22483 140.726 7.8409 140.977 7.43728L140.992 7.41268L140.967 7.39298C139.775 6.41839 138.258 5.90649 136.574 5.90649C136.549 5.90649 136.529 5.90649 136.505 5.91141C136.49 5.91141 136.47 5.91633 136.455 5.91633H136.441C136.431 5.91633 136.421 5.91633 136.411 5.91633C132.604 5.91633 129.737 8.87948 129.737 12.8024C129.737 16.7303 132.609 19.6935 136.411 19.6935C138.032 19.6935 139.391 19.2456 140.45 18.3596L140.455 18.3743L140.494 18.3399C140.726 18.143 140.977 17.8674 141.273 17.508C141.282 17.4933 141.302 17.4785 141.312 17.4637C141.337 17.4391 141.356 17.4194 141.381 17.3899L141.401 17.3604L141.396 17.3555C141.716 16.9518 142.046 16.499 142.391 16.0215C143.809 14.0674 145.42 11.8574 147.37 11.8377C149.153 11.8377 150.395 13.1421 150.395 15.0076C150.395 16.878 149.148 18.1824 147.37 18.1824C145.888 18.1824 144.73 17.3062 144.425 15.9576C144.282 15.3324 144.356 15.0027 144.356 14.9977L144.395 14.8353L143.223 16.4744L143.213 16.4842V16.499C143.548 18.5466 144.908 19.5557 147.37 19.5753H147.424C148.71 19.5753 149.877 19.1225 150.71 18.3005C151.552 17.4736 152.015 16.3021 152.015 15.0076C152.015 13.7081 151.547 12.5366 150.695 11.7146Z" fill="white"/>
</svg>
